<svg id="_003-console" data-name="003-console" xmlns="http://www.w3.org/2000/svg" width="24.232" height="15.915" viewBox="0 0 24.232 15.915">
  <g id="Group_450" data-name="Group 450" transform="translate(0)">
    <g id="Group_449" data-name="Group 449">
      <path id="Path_724" data-name="Path 724" d="M24.219,66.116a22.619,22.619,0,0,0-.664-4.376A16.8,16.8,0,0,0,22.2,58.058c-2.113-3.712-4.407-3.139-7.153-2.415a19.659,19.659,0,0,1-2.777.543h-.3a19.659,19.659,0,0,1-2.777-.543c-2.747-.694-5.04-1.3-7.153,2.445A15.386,15.386,0,0,0,.677,61.77a22.619,22.619,0,0,0-.664,4.376,8.224,8.224,0,0,0,.423,3.441,2.287,2.287,0,0,0,1.449,1.358,2.951,2.951,0,0,0,1.932-.211A14.186,14.186,0,0,0,7.68,67.987a6.663,6.663,0,0,1,4.437-1.358,6.663,6.663,0,0,1,4.437,1.358,14.186,14.186,0,0,0,3.863,2.747,3.157,3.157,0,0,0,1.932.211A2.255,2.255,0,0,0,23.8,69.557,8.07,8.07,0,0,0,24.219,66.116ZM22.77,69.134a1.2,1.2,0,0,1-.724.755,2.084,2.084,0,0,1-1.237-.151,12.309,12.309,0,0,1-3.5-2.505,7.536,7.536,0,0,0-5.191-1.72,7.959,7.959,0,0,0-5.221,1.66,12.541,12.541,0,0,1-3.5,2.505,1.872,1.872,0,0,1-1.237.151,1.2,1.2,0,0,1-.724-.755,7.137,7.137,0,0,1-.3-2.9,20.819,20.819,0,0,1,.634-4.165A14.4,14.4,0,0,1,3.032,58.6c1.66-2.988,3.592-2.505,5.885-1.9a17.7,17.7,0,0,0,2.958.573h.453a17.485,17.485,0,0,0,2.988-.573c2.294-.573,4.225-1.087,5.885,1.9a13.917,13.917,0,0,1,1.268,3.411,22.844,22.844,0,0,1,.634,4.165A6.984,6.984,0,0,1,22.77,69.134Z" transform="translate(0 -55.109)" fill="#401db1"/>
    </g>
  </g>
  <g id="Group_452" data-name="Group 452" transform="translate(3.122 3.008)">
    <g id="Group_451" data-name="Group 451">
      <path id="Path_725" data-name="Path 725" d="M47.59,97.094a1.834,1.834,0,0,0-1.087-.513,1.717,1.717,0,0,0-.483-1.056l-.03-.03a1.709,1.709,0,0,0-1.237-.513,1.782,1.782,0,0,0-1.237.513A1.754,1.754,0,0,0,43,96.581a1.8,1.8,0,0,0-1.087.483l-.03.03a1.709,1.709,0,0,0-.513,1.237,1.782,1.782,0,0,0,.513,1.237,1.683,1.683,0,0,0,1.117.513,1.61,1.61,0,0,0,.513,1.087,1.709,1.709,0,0,0,1.237.513,1.782,1.782,0,0,0,1.237-.513,1.834,1.834,0,0,0,.513-1.087,1.61,1.61,0,0,0,1.087-.513,1.709,1.709,0,0,0,.513-1.237A1.782,1.782,0,0,0,47.59,97.094Zm-.755,1.69a.614.614,0,0,1-.453.181h-.423a.573.573,0,0,0-.573.573v.392a.634.634,0,1,1-1.268,0v-.423a.573.573,0,0,0-.573-.573h-.423a.619.619,0,0,1-.453-1.056l.03-.03a.721.721,0,0,1,.423-.151h.423a.573.573,0,0,0,.573-.573V96.7a.64.64,0,0,1,1.087-.453l.03.03a.721.721,0,0,1,.151.423v.423a.573.573,0,0,0,.573.573h.423a.64.64,0,0,1,.453,1.087Z" transform="translate(-41.373 -94.981)" fill="#401db1"/>
    </g>
  </g>
  <g id="Group_454" data-name="Group 454" transform="translate(16.311 3.159)">
    <g id="Group_453" data-name="Group 453">
      <circle id="Ellipse_31" data-name="Ellipse 31" cx="1.056" cy="1.056" r="1.056" fill="#401db1"/>
    </g>
  </g>
  <g id="Group_456" data-name="Group 456" transform="translate(16.311 7.445)">
    <g id="Group_455" data-name="Group 455">
      <circle id="Ellipse_32" data-name="Ellipse 32" cx="1.056" cy="1.056" r="1.056" fill="#401db1"/>
    </g>
  </g>
  <g id="Group_458" data-name="Group 458" transform="translate(14.168 5.302)">
    <g id="Group_457" data-name="Group 457">
      <circle id="Ellipse_33" data-name="Ellipse 33" cx="1.056" cy="1.056" r="1.056" fill="#401db1"/>
    </g>
  </g>
  <g id="Group_460" data-name="Group 460" transform="translate(18.454 5.302)">
    <g id="Group_459" data-name="Group 459">
      <circle id="Ellipse_34" data-name="Ellipse 34" cx="1.056" cy="1.056" r="1.056" fill="#401db1"/>
    </g>
  </g>
</svg>
