<?xml version="1.0" encoding="utf-8"?>
<!-- Generator: Adobe Illustrator 22.0.1, SVG Export Plug-In . SVG Version: 6.00 Build 0)  -->
<svg version="1.1" id="Layer_1" xmlns="http://www.w3.org/2000/svg" xmlns:xlink="http://www.w3.org/1999/xlink" x="0px" y="0px"
	 viewBox="0 0 16 16" style="enable-background:new 0 0 16 16;" xml:space="preserve">
<style type="text/css">
	.st0{fill:#7878A0;}
</style>
<title>MAXICONS1_earphones</title>
<desc>Created with Sketch.</desc>
<g id="_x30_1-Home" transform="translate(-1274.000000, -220.000000)">
	<g id="MAXICONS1_earphones" transform="translate(1274.000000, 219.000000)">
		<path id="Shape" class="st0" d="M14,17h-3c-0.6,0-1-0.4-1-1v-5c0-0.6,0.4-1,1-1h3V9.2c0-3-2.2-5.8-5.2-6.2C5.1,2.6,2,5.4,2,9v1h3
			c0.6,0,1,0.4,1,1v5c0,0.6-0.4,1-1,1H2c-1.1,0-2-0.9-2-2V9.3C0,5,3.2,1.3,7.5,1C12.1,0.7,16,4.4,16,9v6C16,16.1,15.1,17,14,17z
			 M12,15h2v-3h-2V15z M2,15h2v-3H2V15z"/>
	</g>
</g>
</svg>
