<svg id="_004-nfc" data-name="004-nfc" xmlns="http://www.w3.org/2000/svg" width="18.944" height="18.944" viewBox="0 0 18.944 18.944">
  <path id="Path_726" data-name="Path 726" d="M115.529,416h-2.972a.557.557,0,1,0,0,1.114h2.972a.557.557,0,1,0,0-1.114Z" transform="translate(-107.84 -400.548)" fill="#401db1"/>
  <path id="Path_727" data-name="Path 727" d="M17.829,1.783H12.406V1.114A1.116,1.116,0,0,0,11.292,0H1.114A1.116,1.116,0,0,0,0,1.114V17.829a1.116,1.116,0,0,0,1.114,1.114H11.292a1.116,1.116,0,0,0,1.114-1.114v-.669h5.423a1.116,1.116,0,0,0,1.114-1.114V2.9A1.116,1.116,0,0,0,17.829,1.783ZM1.114,1.114H2.377V2.377H1.114ZM11.292,17.829H1.114V3.492h1.82a.557.557,0,0,0,.557-.557V1.114h7.8ZM12.406,5.275h3.046V6.537H12.406Zm5.423,10.772H12.406V7.652h3.046a1.116,1.116,0,0,0,1.114-1.114V5.275A1.116,1.116,0,0,0,15.452,4.16H12.406V2.9h5.423Z" fill="#401db1"/>
  <path id="Path_728" data-name="Path 728" d="M385.449,240h-.891a.557.557,0,1,0,0,1.114h.891a.557.557,0,0,0,0-1.114Z" transform="translate(-369.737 -231.085)" fill="#401db1"/>
  <path id="Path_729" data-name="Path 729" d="M385.449,304h-.891a.557.557,0,1,0,0,1.114h.891a.557.557,0,1,0,0-1.114Z" transform="translate(-369.737 -292.708)" fill="#401db1"/>
  <path id="Path_730" data-name="Path 730" d="M385.449,368h-.891a.557.557,0,1,0,0,1.114h.891a.557.557,0,0,0,0-1.114Z" transform="translate(-369.737 -354.331)" fill="#401db1"/>
  <path id="Path_731" data-name="Path 731" d="M115.732,304.295a4.913,4.913,0,0,0-3.386,0,.557.557,0,1,0,.415,1.034,3.815,3.815,0,0,1,2.557,0,.557.557,0,1,0,.415-1.034Z" transform="translate(-107.836 -292.702)" fill="#401db1"/>
  <path id="Path_732" data-name="Path 732" d="M93.516,239.317a7.525,7.525,0,0,0-5.169,0,.557.557,0,1,0,.415,1.034,6.435,6.435,0,0,1,4.34,0,.557.557,0,1,0,.415-1.034Z" transform="translate(-84.728 -229.987)" fill="#401db1"/>
  <path id="Path_733" data-name="Path 733" d="M64.036,175.21a.557.557,0,0,0,.724.31,9.055,9.055,0,0,1,6.123,0,.557.557,0,1,0,.415-1.034,10.14,10.14,0,0,0-6.952,0A.557.557,0,0,0,64.036,175.21Z" transform="translate(-61.619 -167.413)" fill="#401db1"/>
</svg>
