<?xml version="1.0" encoding="UTF-8"?>
<svg width="228px" height="228px" viewBox="0 0 228 228" version="1.1" xmlns="http://www.w3.org/2000/svg" xmlns:xlink="http://www.w3.org/1999/xlink">
    <!-- Generator: Sketch 48.2 (47327) - http://www.bohemiancoding.com/sketch -->
    <title>Signin</title>
    <desc>Created with Sketch.</desc>
    <defs>
        <circle id="path-1" cx="114" cy="114" r="114"></circle>
        <linearGradient x1="108.748489%" y1="106.484036%" x2="-6.06783318%" y2="27.7893684%" id="linearGradient-3">
            <stop stop-color="#9777B7" offset="0%"></stop>
            <stop stop-color="#48BFEA" offset="100%"></stop>
        </linearGradient>
        <path d="M122.765714,49.7945878 C122.765714,30.6766756 109.47558,19.7112342 89.9787843,11.37207 C81.4391289,7.71949082 71.7087465,0.0166142228 61.3828571,0.0166142228 C48.9448269,0.0166142228 37.3708391,8.65186175 27.7011733,13.8082652 C11.015415,22.7060392 0,32.3895006 0,49.7945878 C0,77.2862035 122.765714,77.2862035 122.765714,49.7945878 Z" id="path-4"></path>
        <path d="M59.9771429,116.887225 L59.9771429,116.887225 C68.0751647,116.887225 74.6399084,123.451968 74.6399084,131.54999 C74.6399084,131.659258 74.638687,131.768523 74.6362444,131.877764 L74.2116506,150.866998 C74.038642,158.60451 67.7165889,164.786784 59.9771429,164.786784 L59.9771429,164.786784 C52.2376968,164.786784 45.9156437,158.60451 45.7426351,150.866998 L45.3180413,131.877764 C45.1370171,123.781765 51.5533713,117.071913 59.6493696,116.890889 C59.7586103,116.888446 59.8678748,116.887225 59.9771429,116.887225 Z" id="path-6"></path>
        <filter x="-6.8%" y="-4.2%" width="113.6%" height="116.7%" filterUnits="objectBoundingBox" id="filter-7">
            <feOffset dx="0" dy="4" in="SourceAlpha" result="shadowOffsetOuter1"></feOffset>
            <feColorMatrix values="0 0 0 0 0   0 0 0 0 0   0 0 0 0 0  0 0 0 0.278900589 0" type="matrix" in="shadowOffsetOuter1"></feColorMatrix>
        </filter>
        <path d="M15.9314286,15.9665198 C24.7301136,15.9665198 31.8628571,8.81806541 31.8628571,0 C19.6520232,-4.86209772e-15 6.52885681,4.91278892e-13 0,0 C0,8.81806541 7.13274353,15.9665198 15.9314286,15.9665198 Z" id="path-8"></path>
        <circle id="path-10" cx="17.6" cy="17.6" r="17.6"></circle>
        <filter x="-36.9%" y="-31.2%" width="173.9%" height="173.9%" filterUnits="objectBoundingBox" id="filter-11">
            <feOffset dx="0" dy="2" in="SourceAlpha" result="shadowOffsetOuter1"></feOffset>
            <feGaussianBlur stdDeviation="4" in="shadowOffsetOuter1" result="shadowBlurOuter1"></feGaussianBlur>
            <feColorMatrix values="0 0 0 0 0.498039216   0 0 0 0 0.835294118   0 0 0 0 0.454901961  0 0 0 0.405315897 0" type="matrix" in="shadowBlurOuter1"></feColorMatrix>
        </filter>
    </defs>
    <g id="06-Shopping-cart-Copy-6" stroke="none" stroke-width="1" fill="none" fill-rule="evenodd" transform="translate(-606.000000, -1051.000000)">
        <g id="Signin" transform="translate(606.000000, 1051.000000)">
            <g id="main">
                <mask id="mask-2" fill="white">
                    <use xlink:href="#path-1"></use>
                </mask>
                <use id="Mask" fill="#F6F9FA" xlink:href="#path-1"></use>
                <g mask="url(#mask-2)">
                    <g transform="translate(53.000000, 7.000000)">
                        <g id="Rectangle-6" stroke="none" stroke-width="1" fill="none" fill-rule="evenodd" transform="translate(0.000000, 149.742857)">
                            <mask id="mask-5" fill="white">
                                <use xlink:href="#path-4"></use>
                            </mask>
                            <use id="Mask" fill="url(#linearGradient-3)" xlink:href="#path-4"></use>
                            <path d="M77.3347307,50.0117251 L86.7336474,51.7142857 L97.2480185,49.9558946 C98.8821781,49.6826028 100.428473,50.7858041 100.701765,52.4199637 C100.729113,52.583491 100.742857,52.749004 100.742857,52.9148023 L100.742857,73.3142857 C100.742857,74.97114 99.3997114,76.3142857 97.7428571,76.3142857 L76.8,76.3142857 C75.1431458,76.3142857 73.8,74.97114 73.8,73.3142857 L73.8,52.9636843 C73.8,51.30683 75.1431458,49.9636843 76.8,49.9636843 C76.9793211,49.9636843 77.1582812,49.9797622 77.3347307,50.0117251 Z" fill="#1C1C1C" opacity="0.115772192" mask="url(#mask-5)"></path>
                        </g>
                        <g id="Rectangle-Copy" stroke="none" fill="none">
                            <use fill="black" fill-opacity="1" filter="url(#filter-7)" xlink:href="#path-6"></use>
                            <use fill="#D8BAA1" fill-rule="evenodd" xlink:href="#path-6"></use>
                        </g>
                        <path d="M20.6171429,49.2643172 L99.3371429,49.2643172 L97.30054,118.661334 C96.8689874,133.366444 84.8236857,145.063436 70.1122455,145.063436 L49.8420402,145.063436 C35.1306,145.063436 23.0852983,133.366444 22.6537457,118.661334 L20.6171429,49.2643172 Z" id="Rectangle" stroke="none" fill="#E5CFBC" fill-rule="evenodd"></path>
                        <ellipse id="Oval-3" stroke="none" fill="#E5CFBC" fill-rule="evenodd" cx="21.0857143" cy="83.5453744" rx="7.96571429" ry="8.92246696"></ellipse>
                        <ellipse id="Oval-3-Copy" stroke="none" fill="#E5CFBC" fill-rule="evenodd" cx="98.8685714" cy="83.5453744" rx="7.96571429" ry="8.92246696"></ellipse>
                        <g id="Group-2" stroke="none" stroke-width="1" fill="none" fill-rule="evenodd" transform="translate(41.422857, 79.379736)">
                            <circle id="Oval" fill="#494A4B" cx="3.5" cy="3.77048458" r="3.5"></circle>
                            <circle id="Oval-Copy-2" fill="#494A4B" cx="34.3" cy="3.77048458" r="3.5"></circle>
                            <g id="Mouth" transform="translate(2.622857, 30.933040)">
                                <g id="Oval-2-Copy-+-Oval-2-Copy-2-Mask">
                                    <mask id="mask-9" fill="white">
                                        <use xlink:href="#path-8"></use>
                                    </mask>
                                    <use id="Mask" fill="#372C28" xlink:href="#path-8"></use>
                                    <rect id="Rectangle-9" fill="#F1F1F1" mask="url(#mask-9)" x="5" y="-4" width="21" height="7"></rect>
                                    <ellipse id="Oval-4" fill="#D96B70" mask="url(#mask-9)" cx="15.5" cy="24" rx="16.5" ry="15"></ellipse>
                                </g>
                            </g>
                            <path d="M19.0857143,6.57444934 L19.0857143,6.57444934 C20.434774,6.57444934 21.5832342,7.55613803 21.7931859,8.88876045 L23.4378483,19.3278988 C23.8165327,21.731516 22.1750003,23.9870172 19.7713831,24.3657016 C19.5445748,24.4014347 19.3153202,24.4193833 19.0857143,24.4193833 L19.0857143,24.4193833 C16.6524495,24.4193833 14.6798986,22.4468324 14.6798986,20.0135676 C14.6798986,19.7839617 14.6978472,19.5547071 14.7335803,19.3278988 L16.3782427,8.88876045 C16.5881943,7.55613803 17.7366545,6.57444934 19.0857143,6.57444934 Z" id="Rectangle-4" fill="#A38080" opacity="0.307914402"></path>
                        </g>
                        <g id="Group-4" stroke="none" stroke-width="1" fill="none" fill-rule="evenodd" transform="translate(61.000000, 43.500000) scale(-1, 1) translate(-61.000000, -43.500000) translate(15.000000, 0.000000)">
                            <path d="M56.7946916,50.0385731 C70.2818979,43.0057907 78.7238811,45.7591979 82.1206413,58.2987946 C85.1900153,68.0779436 84.4802977,76.4805272 84.4101206,83.5684108 C92.3425543,66.8158255 93.1982957,41.359013 87.4794946,31.4166463 C86.0135164,28.8679838 60.3720967,23.5211556 56.7946916,24.6424053 C52.9771814,25.8389101 52.9771814,34.3042994 56.7946916,50.0385731 Z" id="Path-5" fill="#606060"></path>
                            <path d="M8.68543973,86.7051195 L11.7503143,50.3397132 C36.2011764,64.0897948 57.5447976,64.7987687 75.7811776,52.4666352 C103.135748,33.9684348 87.254527,7.94049779 73.6187732,0.784199734 C75.7811776,5.35843716 73.7287855,17.9183233 58.8912009,13.9551127 C46.6335923,10.6810297 38.5568549,2.54604064 20.9962449,11.9543982 C-1.87134004,24.2060463 -5.97494176,49.1229534 8.68543973,86.7051195 Z" id="Path-4" fill="#606060"></path>
                        </g>
                        <rect id="Rectangle-21" stroke="#454545" stroke-width="3" fill-opacity="0.2265625" fill="#FFFFFF" fill-rule="evenodd" x="32" y="73" width="25" height="21" rx="4"></rect>
                        <polygon id="Rectangle-7" stroke="none" fill="#454545" fill-rule="evenodd" points="22 71 32 80 32 87 22 78"></polygon>
                        <polygon id="Rectangle-7-Copy" stroke="none" fill="#454545" fill-rule="evenodd" points="99 71 89 80 89 87 99 78"></polygon>
                        <rect id="Rectangle-2" stroke="none" fill="#454545" fill-rule="evenodd" x="56" y="82" width="9" height="4"></rect>
                        <rect id="Rectangle-21-Copy" stroke="#454545" stroke-width="3" fill-opacity="0.2265625" fill="#FFFFFF" fill-rule="evenodd" x="64" y="73" width="25" height="21" rx="4"></rect>
                    </g>
                </g>
            </g>
            <g id="indicator" transform="translate(158.000000, 182.000000)">
                <g id="Oval-2">
                    <use fill="black" fill-opacity="1" filter="url(#filter-11)" xlink:href="#path-10"></use>
                    <use fill="#7FD574" fill-rule="evenodd" xlink:href="#path-10"></use>
                </g>
                <path d="M27.0659545,17.5384735 C27.0659545,22.513668 23.0081718,26.5714507 18.0329773,26.5714507 C13.0577827,26.5714507 9,22.513668 9,17.5384735 C9,14.680383 10.3173092,12.0457646 12.6108386,10.328558 C13.2812548,9.82280539 14.22219,9.95218397 14.7161809,10.6226003 C15.2219335,11.2812548 15.0807933,12.2339517 14.4221387,12.7279426 C12.8931191,13.8805881 12.0109924,15.6330798 12.0109924,17.5384735 C12.0109924,20.8552698 14.7161809,23.5604583 18.0329773,23.5604583 C21.3497736,23.5604583 24.0549621,20.8552698 24.0549621,17.5384735 C24.0549621,15.6330798 23.1728354,13.8805881 21.6438158,12.7279426 C20.9851612,12.2339517 20.844021,11.2812548 21.3497736,10.6226003 C21.8437645,9.95218397 22.7964613,9.82280539 23.4551159,10.328558 C25.7486453,12.0457646 27.0659545,14.680383 27.0659545,17.5384735 Z M19.5384735,8.50549621 L19.5384735,16.0329773 C19.5384735,16.8562955 18.8562955,17.5384735 18.0329773,17.5384735 C17.209659,17.5384735 16.527481,16.8562955 16.527481,16.0329773 L16.527481,8.50549621 C16.527481,7.68217797 17.209659,7 18.0329773,7 C18.8562955,7 19.5384735,7.68217797 19.5384735,8.50549621 Z" id="power-off---FontAwesome" fill="#FFFFFF"></path>
            </g>
        </g>
    </g>
</svg>