<svg xmlns="http://www.w3.org/2000/svg" width="18.524" height="18.705" viewBox="0 0 18.524 18.705">
  <path id="shopping-cart-2" d="M18.081,3.549a1.818,1.818,0,0,0-1.392-.614H3.376l-.134-1A2.032,2.032,0,0,0,1.526,0H.548a.548.548,0,0,0,0,1.1h.978c.176,0,.548.372.629.979L3.724,13.84a2.216,2.216,0,0,0,.75,1.367,2.265,2.265,0,0,0,1.052.523,2.016,2.016,0,1,0,3.565.04h2.872a2.015,2.015,0,1,0,3.585,0h1.436a.548.548,0,1,0,0-1.1H5.929A1.176,1.176,0,0,1,4.81,13.7l-.115-.86h10.82a2.275,2.275,0,0,0,2.2-1.93l.786-5.9A1.818,1.818,0,0,0,18.081,3.549ZM8.218,16.69A.919.919,0,1,1,7.3,15.77.92.92,0,0,1,8.218,16.69Zm6.457,0a.919.919,0,1,1-.919-.919A.92.92,0,0,1,14.674,16.69ZM17.257,4.271a.737.737,0,0,1,.163.594l-.33,2.472H13.362l.22-3.306H16.69A.737.737,0,0,1,17.257,4.271ZM9.474,11.739l-.22-3.306H12.19l-.22,3.306Zm-.294-4.4-.22-3.306h3.523l-.22,3.306ZM7.862,4.031l.22,3.306H3.963L3.522,4.031Zm-3.753,4.4H8.155l.22,3.306H4.55Zm11.407,3.306H13.068l.22-3.306h3.656l-.31,2.327A1.176,1.176,0,0,1,15.516,11.739Zm0,0" fill="#535353"/>
</svg>
