<svg xmlns="http://www.w3.org/2000/svg" width="15.206" height="20.965" viewBox="0 0 15.206 20.965">
  <g id="_006-sim-card" data-name="006-sim-card" transform="translate(0.1 0.1)">
    <path id="Path_735" data-name="Path 735" d="M14.74,2.656,12.1.219A.823.823,0,0,0,11.539,0H.826A.827.827,0,0,0,0,.826V19.939a.827.827,0,0,0,.826.826H14.18a.827.827,0,0,0,.826-.826V3.263A.828.828,0,0,0,14.74,2.656ZM14.4,19.939a.217.217,0,0,1-.217.217H.826a.217.217,0,0,1-.217-.217V.826A.217.217,0,0,1,.826.608H11.539a.216.216,0,0,1,.147.058L14.327,3.1a.218.218,0,0,1,.07.16Zm0,0" transform="translate(0 0)" fill="#401db1" stroke="#000" stroke-width="0.2"/>
    <path id="Path_736" data-name="Path 736" d="M45.265,106.055H37.284a2.087,2.087,0,0,0-2.085,2.085v10.652a2.087,2.087,0,0,0,2.085,2.085h7.981a2.087,2.087,0,0,0,2.085-2.085V108.139A2.087,2.087,0,0,0,45.265,106.055Zm-9.458,2.085a1.478,1.478,0,0,1,1.476-1.476h1.855v1.114a.3.3,0,1,0,.608,0v-1.114H42.8v3.7a.509.509,0,0,1-.022.147c0,.007-.005.015-.007.022a.51.51,0,0,1-.48.34H40.256a.51.51,0,0,1-.48-.34l-.007-.022a.5.5,0,0,1-.022-.147V109.2a.3.3,0,1,0-.608,0v1.11H39a2.9,2.9,0,0,0-2.642,1.715.128.128,0,0,1-.117.075h-.432Zm3.331,12.128H37.284a1.478,1.478,0,0,1-1.476-1.476v-3.958h.432a.128.128,0,0,1,.117.075A2.9,2.9,0,0,0,39,116.623h.139Zm7.6-1.476a1.478,1.478,0,0,1-1.476,1.476H43.41v-1.223a.3.3,0,1,0-.608,0v1.223H39.747v-3.7a.509.509,0,0,1,.022-.147l.007-.022a.51.51,0,0,1,.48-.34h2.037a.51.51,0,0,1,.48.34c0,.008,0,.015.007.022a.509.509,0,0,1,.021.147v1.053a.3.3,0,0,0,.608,0v-1h.14a2.9,2.9,0,0,0,2.642-1.715.128.128,0,0,1,.117-.075h.432Zm0-4.567h-.432a.737.737,0,0,0-.673.436,2.288,2.288,0,0,1-2.087,1.354h-.288a1.118,1.118,0,0,0-.969-.561H40.256a1.118,1.118,0,0,0-.968.561H39a2.288,2.288,0,0,1-2.087-1.354.737.737,0,0,0-.673-.436h-.432v-1.518h.432a.737.737,0,0,0,.673-.435A2.288,2.288,0,0,1,39,110.916h.288a1.118,1.118,0,0,0,.969.561h2.037a1.118,1.118,0,0,0,.968-.561h.288a2.288,2.288,0,0,1,2.087,1.354.737.737,0,0,0,.673.435h.432Zm0-2.127h-.432a.128.128,0,0,1-.117-.075,2.9,2.9,0,0,0-2.642-1.715h-.14v-3.645h1.855a1.478,1.478,0,0,1,1.476,1.476Zm0,0" transform="translate(-33.772 -101.754)" fill="#401db1" stroke="#000" stroke-width="0.2"/>
  </g>
</svg>
