<svg xmlns="http://www.w3.org/2000/svg" width="37.47" height="33.107" viewBox="0 0 37.47 33.107">
  <g id="_005-warning" data-name="005-warning" transform="translate(0 -28.438)">
    <path id="Path_71164" data-name="Path 71164" d="M37.138,57.863,20.86,29.663a2.455,2.455,0,0,0-4.25,0L.331,57.863a2.456,2.456,0,0,0,2.125,3.682H35.013A2.456,2.456,0,0,0,37.138,57.863ZM18.758,38.347a1.86,1.86,0,0,1,1.856,1.91l-.307,10.709a1.558,1.558,0,0,1-3.115,0l-.3-10.709A1.867,1.867,0,0,1,18.758,38.347Zm-.023,19.37a1.933,1.933,0,1,1,1.933-1.933A1.935,1.935,0,0,1,18.735,57.717Z" transform="translate(0)" fill="#401db1"/>
  </g>
</svg>
