<svg id="calendar.4" xmlns="http://www.w3.org/2000/svg" width="23.01" height="23.01" viewBox="0 0 23.01 23.01">
  <path id="Path_4833" data-name="Path 4833" d="M6.6,3.15a1.15,1.15,0,1,1,2.3,0V4.3h9.2V3.15a1.15,1.15,0,0,1,2.3,0V4.3h1.15A3.451,3.451,0,0,1,25.01,7.752V21.558a3.451,3.451,0,0,1-3.451,3.451H5.451A3.451,3.451,0,0,1,2,21.558V7.752A3.451,3.451,0,0,1,5.451,4.3H6.6Z" transform="translate(-2 -2)" fill="#4a4a4a" fill-rule="evenodd" opacity="0.25"/>
  <path id="Path_4834" data-name="Path 4834" d="M10.6,12a1.15,1.15,0,1,0,0,2.3h8.053a1.15,1.15,0,1,0,0-2.3ZM7.15,16.6a1.15,1.15,0,0,0,0,2.3h6.9a1.15,1.15,0,0,0,0-2.3Z" transform="translate(-1.398 -0.495)" fill="#4a4a4a" fill-rule="evenodd"/>
</svg>
