<svg xmlns="http://www.w3.org/2000/svg" xmlns:xlink="http://www.w3.org/1999/xlink" width="315" height="189.69" viewBox="0 0 315 189.69">
  <defs>
    <clipPath id="clip-path">
      <rect width="315" height="189.69" fill="none"/>
    </clipPath>
    <linearGradient id="linear-gradient" x1="0.5" x2="0.5" y2="1" gradientUnits="objectBoundingBox">
      <stop offset="0" stop-color="#ff8a55"/>
      <stop offset="1" stop-color="#ff44af"/>
    </linearGradient>
  </defs>
  <g id="undraw_message_sent_1030" clip-path="url(#clip-path)">
    <g id="undraw_message_sent_1030-2" data-name="undraw_message_sent_1030" transform="translate(0 -0.017)">
      <path id="Path_71110" data-name="Path 71110" d="M698.108,253.159l2.7-.467c.259-.045.516-.1.775-.148a22.173,22.173,0,0,1,14.157-40.874l-3.54,8.424,8.388-7.324a.386.386,0,0,1,.057.019,22.174,22.174,0,0,1,13.548,28.282c-.14.4-.307.781-.468,1.167a26.508,26.508,0,0,0,6.492-4.348c3.75-3.594,5.805-8.553,8.1-14.662,4.549-12.107,8.929-24.39,13.134-36.7a22.164,22.164,0,0,1-10.362-26.841c.225-.64.486-1.256.763-1.862.069-.151.139-.3.211-.451.281-.58.578-1.149.9-1.695.053-.089.113-.173.167-.262q.425-.69.9-1.34c.117-.163.234-.325.355-.483.356-.466.726-.92,1.115-1.353.13-.145.268-.28.4-.421q.449-.473.922-.918c.166-.156.331-.313.5-.464.044-.039.085-.081.129-.119l.006.009a22.158,22.158,0,0,1,28.351-.637l-4.607,10.963,8.292-7.237a22.051,22.051,0,0,1,.82,26.115l.023.007c-.09.133-.193.255-.286.386q-.262.368-.537.723c-.236.3-.48.6-.73.886-.189.218-.375.438-.571.648-.287.307-.588.6-.891.887-.177.169-.346.346-.528.508q-.715.639-1.479,1.212c-.179.134-.367.252-.55.38-.358.252-.717.5-1.089.729-.231.142-.467.273-.7.407-.341.194-.684.382-1.034.558-.248.124-.5.243-.751.358-.36.164-.724.316-1.092.461-.247.1-.493.2-.743.283-.413.145-.832.272-1.254.393-.213.061-.422.131-.637.186-.632.161-1.272.3-1.919.4-.122.02-.245.027-.368.045-.536.078-1.075.141-1.619.179-.234.016-.468.019-.7.028-.439.017-.879.026-1.321.016-.258-.005-.515-.019-.774-.033q-.646-.037-1.292-.112c-.255-.03-.509-.059-.764-.1-.462-.07-.923-.162-1.385-.262l-.091-.017q-2.662,7.79-5.423,15.546a22.159,22.159,0,0,1,32.131,2.649l-7.666,8.478,10.38-4.143a22.1,22.1,0,0,1,.887,16.88,21.75,21.75,0,0,1-2.817,5.449,22.165,22.165,0,0,1-40.05-9.725c-.2.521-.383,1.049-.579,1.569-2.026,5.39-4.547,12.1-9.61,16.948-3.432,3.287-7.654,5.373-11.7,7.136q-3.957,1.722-8.019,3.184a22.223,22.223,0,0,1-9.923,3.163c-4.273,1.187-8.6,2.178-12.967,2.943l-2.723.469c-2.447.419-4.957.851-7.447,1.348.359.106.718.208,1.074.333a22.181,22.181,0,0,1,14.807,21.58l-17.072,5.24,15.448,2.453A22.184,22.184,0,0,1,669,296.755q.235.788.472,1.574c.314,1.041.625,2.076.924,3.1,4.065,13.968,2.315,24.955-4.927,30.937l-3.93-4.757c7.049-5.823,4.862-17.821,2.932-24.456-.293-1.007-.6-2.023-.908-3.046-2.648-8.8-5.649-18.765-1.762-27.926C667.657,258.373,684.541,255.482,698.108,253.159Z" transform="translate(-483.808 -144.859)" fill="#f2f2f2"/>
      <path id="Path_71111" data-name="Path 71111" d="M468.633,448.6H349.019a14.79,14.79,0,0,1-14.79-14.79v-54.8a5.859,5.859,0,0,1,1.828-4.252l63.384-60.082a13.642,13.642,0,0,1,18.77,0l60.433,57.285a15.315,15.315,0,0,1,4.779,11.115v50.736A14.79,14.79,0,0,1,468.633,448.6Z" transform="translate(-259.336 -259.304)" fill="#fff"/>
      <path id="Path_71112" data-name="Path 71112" d="M240.954,387.992H388.9v59.761a8.931,8.931,0,0,1-8.931,8.931H249.885a8.931,8.931,0,0,1-8.931-8.931Z" transform="translate(-166.061 -267.385)" opacity="0.1"/>
      <path id="Path_71113" data-name="Path 71113" d="M333.73,521.351" transform="translate(-258.992 -404.318)" fill="none" stroke="#3f3d56" stroke-miterlimit="10" stroke-width="1"/>
      <rect id="Rectangle_8320" data-name="Rectangle 8320" width="110.03" height="110.03" rx="26.181" transform="translate(94.32 73.518)" fill="url(#linear-gradient)"/>
      <path id="Path_71114" data-name="Path 71114" d="M413.484,395.942v60.47H303.454v-60.47l55.015,26.591Z" transform="translate(-209.134 -272.864)" opacity="0.1"/>
      <path id="Path_71115" data-name="Path 71115" d="M408.326,561.173,337.834,527.1a2.86,2.86,0,0,0-4.1,2.575V588.3a8.931,8.931,0,0,0,8.931,8.931H473.993a8.931,8.931,0,0,0,8.931-8.931V530.681a3.49,3.49,0,0,0-5.009-3.142Z" transform="translate(-258.992 -408.085)" fill="#fff"/>
      <rect id="Rectangle_8321" data-name="Rectangle 8321" width="30.771" height="4.351" transform="translate(103.8 83.619)" fill="#f2f2f2"/>
      <rect id="Rectangle_8322" data-name="Rectangle 8322" width="91.381" height="2.487" transform="translate(101.313 99.471)" fill="#f2f2f2"/>
      <rect id="Rectangle_8323" data-name="Rectangle 8323" width="91.381" height="2.487" transform="translate(101.313 107.863)" fill="#f2f2f2"/>
      <rect id="Rectangle_8324" data-name="Rectangle 8324" width="91.381" height="2.487" transform="translate(101.313 116.256)" fill="#f2f2f2"/>
      <line id="Line_30" data-name="Line 30" x2="256.116" transform="translate(18.946 189.143)" fill="none" stroke="#3f3d56" stroke-miterlimit="10" stroke-width="1"/>
      <path id="Path_71116" data-name="Path 71116" d="M93.275,630.212c0,18.326,11.5,33.155,25.7,33.155" transform="translate(-93.275 -479.343)" fill="#fff"/>
      <path id="Path_71117" data-name="Path 71117" d="M175.975,662.542c0-18.532,12.83-33.528,28.685-33.528" transform="translate(-150.27 -478.517)" fill="#ff5894"/>
      <path id="Path_71118" data-name="Path 71118" d="M123.239,635.557c0,17.408,7.331,31.494,16.391,31.494" transform="translate(-113.926 -483.027)" fill="#ff5894"/>
      <path id="Path_71119" data-name="Path 71119" d="M175.975,641.891c0-23.68,14.829-42.841,33.155-42.841" transform="translate(-150.27 -457.867)" fill="#fff"/>
      <path id="Path_71120" data-name="Path 71120" d="M158.577,733.267s3.645-.112,4.744-.895,5.607-1.716,5.88-.462,5.478,6.24,1.363,6.273-9.563-.641-10.659-1.309S158.577,733.267,158.577,733.267Z" transform="translate(-138.28 -549.009)" fill="#a8a8a8"/>
      <path id="Path_71121" data-name="Path 71121" d="M170.637,742.1c-4.116.033-9.563-.641-10.659-1.309-.835-.509-1.168-2.334-1.279-3.176l-.122,0s.231,2.94,1.327,3.608,6.544,1.342,10.659,1.309c1.188-.01,1.6-.432,1.576-1.058C171.974,741.861,171.521,742.1,170.637,742.1Z" transform="translate(-138.28 -553.366)" opacity="0.2"/>
      <path id="Path_71122" data-name="Path 71122" d="M808.263,296.085c-.187,1.664-1.456,3-1.927,4.612-.708,2.419.516,5.015,2.191,6.9a15.28,15.28,0,0,0,10.641,5.052,4.537,4.537,0,0,0,1.759-.192,3.766,3.766,0,0,0,1.338-.915,8.555,8.555,0,0,0,2.208-4.787,25.5,25.5,0,0,0,.059-5.35,3.024,3.024,0,0,0-.2-1.079,2.765,2.765,0,0,0-.695-.854,16.184,16.184,0,0,0-2.981-2.165,3.42,3.42,0,0,1-1.249-.956,3.086,3.086,0,0,1-.386-1.144l-.329-1.678a3.3,3.3,0,0,0-.484-1.36,3.347,3.347,0,0,0-2.671-.93l-3.576-.14a17.23,17.23,0,0,0-3.664-.144c-1.014.2-.677,1.138-.493,1.989A14.382,14.382,0,0,1,808.263,296.085Z" transform="translate(-584.561 -245.481)" fill="#a0616a"/>
      <path id="Path_71123" data-name="Path 71123" d="M808.263,296.085c-.187,1.664-1.456,3-1.927,4.612-.708,2.419.516,5.015,2.191,6.9a15.28,15.28,0,0,0,10.641,5.052,4.537,4.537,0,0,0,1.759-.192,3.766,3.766,0,0,0,1.338-.915,8.555,8.555,0,0,0,2.208-4.787,25.5,25.5,0,0,0,.059-5.35,3.024,3.024,0,0,0-.2-1.079,2.765,2.765,0,0,0-.695-.854,16.184,16.184,0,0,0-2.981-2.165,3.42,3.42,0,0,1-1.249-.956,3.086,3.086,0,0,1-.386-1.144l-.329-1.678a3.3,3.3,0,0,0-.484-1.36,3.347,3.347,0,0,0-2.671-.93l-3.576-.14a17.23,17.23,0,0,0-3.664-.144c-1.014.2-.677,1.138-.493,1.989A14.382,14.382,0,0,1,808.263,296.085Z" transform="translate(-584.561 -245.481)" opacity="0.1"/>
      <path id="Path_71124" data-name="Path 71124" d="M844.926,530.372q-.76,8.332-1.52,16.662c-.4,4.37-.8,8.759-1.579,13.073-.269,1.487-.583,2.966-.957,4.432-1.039,4.071-2.546,8.05-3.032,12.223-.015.12-.028.243-.041.366a10.625,10.625,0,0,1-.519,2.712c-.243.637-.617,1.218-.88,1.847a11.787,11.787,0,0,0-.658,4.015,17.307,17.307,0,0,0-5.959-2.037,4.557,4.557,0,0,1-2.825-1.013c-.762-.834-.678-2.111-.55-3.232q.6-5.22,1.2-10.435a27.2,27.2,0,0,1,.76-4.432c.138-.484.3-.96.473-1.436.233-.655.468-1.31.645-1.983a23.868,23.868,0,0,0,.532-3.3c.412-3.5.908-6.993,1.343-10.491l.023-.184a107.279,107.279,0,0,0,1.006-15.969c-.02-.791-.054-1.581-.1-2.375-.072-1.149-.177-1.758.775-2.477a17.9,17.9,0,0,1,3.639-1.868c.647-.281,7.776-2.812,7.942-2.257a13.893,13.893,0,0,1,.522,3.639A40.495,40.495,0,0,1,844.926,530.372Z" transform="translate(-598.476 -404.857)" fill="#605d82"/>
      <path id="Path_71125" data-name="Path 71125" d="M847.414,615.594c-.269,1.487-.583,2.966-.957,4.432-1.039,4.071-2.546,8.05-3.032,12.223-.015.12-.028.243-.041.366-3.178-4.539-5.854-9.421-8.956-14.009.233-.655.468-1.31.645-1.983a23.871,23.871,0,0,0,.532-3.3c.412-3.5.908-6.993,1.343-10.491l.023-.184a10.866,10.866,0,0,0,.775,2.152c2.083,4.232,7.031,6.371,9.452,10.422Q847.311,615.406,847.414,615.594Z" transform="translate(-604.063 -460.344)" opacity="0.1"/>
      <path id="Path_71126" data-name="Path 71126" d="M793.216,478.91a78.728,78.728,0,0,0,1.191,10.111l1.119,6.917c.612,3.786,1.25,7.648,3.041,11.039a51.125,51.125,0,0,0,5.018,6.976c4.294,5.594,7.52,11.931,11.592,17.69,1.184,1.674,2.875,3.484,4.9,3.134,1.326-.229,2.289-1.333,3.331-2.184,1.229-1,2.709-1.737,3.676-2.995s1.156-3.348-.154-4.243a6.9,6.9,0,0,0-1.5-.613c-2.03-.772-3.344-2.755-4.18-4.759a45.507,45.507,0,0,0-2.457-6.025c-2.42-4.05-7.37-6.189-9.453-10.423-1.167-2.371-1.278-5.1-1.367-7.746l-.227-6.733a4.915,4.915,0,0,1,.255-2.175c.8-1.792,3.2-1.959,5.151-2.186a17.621,17.621,0,0,0,6.313-1.992,6.585,6.585,0,0,0,2.819-2.5,8.069,8.069,0,0,0,.687-3.392l.675-12.2a7.642,7.642,0,0,0-.259-3.119c-.929-2.471-4.05-3.279-6.687-3.161-4.908.219-9.439,2.331-14.066,3.756a35.759,35.759,0,0,1-3.487.909,28.03,28.03,0,0,0-3.286.456c-1.762.594-1.717,4.446-1.967,6.044A50.873,50.873,0,0,0,793.216,478.91Z" transform="translate(-575.652 -360.874)" fill="#605d82"/>
      <path id="Path_71127" data-name="Path 71127" d="M875.332,688.471a3.12,3.12,0,0,1,.687,1.68,57.38,57.38,0,0,1,.972,10.161,1.66,1.66,0,0,0,.183.921,1.157,1.157,0,0,0,.478.384c1.251.6,2.7-.235,3.745-1.148,1.932-1.693,3.567-3.964,3.677-6.531a15.166,15.166,0,0,1,.069-1.981,8.268,8.268,0,0,1,1.231-2.654,22.393,22.393,0,0,0,2.034-4.56c.19-.6.316-1.35-.152-1.768a1.7,1.7,0,0,0-.557-.289l-5.65-2.1c-.49-.182-1.708,2.948-1.9,3.29a2.586,2.586,0,0,1-1.892,1.505c-.969.2-2.122-.086-3.026.4C873.7,686.6,874.466,687.6,875.332,688.471Z" transform="translate(-631.579 -514.057)" fill="#535070"/>
      <path id="Path_71128" data-name="Path 71128" d="M835.186,710.017a1.733,1.733,0,0,0-.43-.545,1.945,1.945,0,0,0-.867-.295c-1.076-.183-2.351-.3-3.093.5-.7.75-.576,1.971-1.158,2.812-.184.266-.434.486-.594.767a2.893,2.893,0,0,0-.26,1.377c-.03,1.3-.06,2.61.03,3.911a5.472,5.472,0,0,0,.941,3.087c1.094,1.371,3.068,1.568,4.82,1.657l1.419.072a2.771,2.771,0,0,0,1.163-.107,1.914,1.914,0,0,0,1-1.1c.739-1.836-.431-3.814-1.152-5.657C836.179,714.372,836.328,712.02,835.186,710.017Z" transform="translate(-600.152 -533.672)" fill="#535070"/>
      <path id="Path_71129" data-name="Path 71129" d="M800.849,255.126a1.172,1.172,0,0,1,.08-.547c.208-.367.75-.267,1.16-.164,1.646.415,3.381.039,5.076.136s3.6.944,3.945,2.608a12.379,12.379,0,0,0,3.13-3.216,3.86,3.86,0,0,0,.816-2.355c-.092-1.218-1.114-2.129-2.06-2.9l-2.82-2.3a4.253,4.253,0,0,0-1.263-.8,6.294,6.294,0,0,0-2.05-.116c-2.053,0-4.242-.933-6.067.006a6.549,6.549,0,0,0-1.89,1.719l-2.517,2.979a1.592,1.592,0,0,0-.4.682,3.029,3.029,0,0,0,.18,1.088c.119.666-.168,1.376.053,2.015.366,1.061,1.654,1.211,2.442,1.82.294.227.754,1,1.1.986C800.4,256.744,800.832,255.616,800.849,255.126Z" transform="translate(-577.558 -213.9)" fill="#3f3d56"/>
      <circle id="Ellipse_1363" data-name="Ellipse 1363" cx="8.06" cy="8.06" r="8.06" transform="translate(219.501 33.889)" fill="#a0616a"/>
      <path id="Path_71130" data-name="Path 71130" d="M788.477,317.242a3.9,3.9,0,0,0-3.8-2.616,1.159,1.159,0,0,1-.7-.089.967.967,0,0,1-.288-.36,14.08,14.08,0,0,1-1.175-2.778c-.129-.427-.3-.93-.736-1.041a.994.994,0,0,0-.938.408,8.279,8.279,0,0,1-.671.843c-1.014.906-2.811.08-3.887.912-.176.136-.321.31-.505.433a2.361,2.361,0,0,1-.592.254,56.77,56.77,0,0,0-6.1,2.389,57.461,57.461,0,0,0,3.127,12.73c.8,1.92,1.7,3.8,2.342,5.779,1.417,4.384,1.479,9.074,1.5,13.681a28.5,28.5,0,0,1-1.025,9.357,8.832,8.832,0,0,0-.576,2.055,2.13,2.13,0,0,0,.721,1.916,2.467,2.467,0,0,0,1.113.391,14.42,14.42,0,0,0,5.29-.614c4.665-1.08,9.422-1.7,14.171-2.315l7.957-1.033a4.618,4.618,0,0,0,1.646-.425c1.456-.8,1.594-2.987.69-4.38a23.785,23.785,0,0,1-1.409-1.922,1.786,1.786,0,0,1,.232-2.187c1.275-1,.9-2.846.956-4.464q.255-6.785-.069-13.575a27.028,27.028,0,0,1-.045-2.815,24.94,24.94,0,0,1,.878-4.7l2.418-9.52a4.961,4.961,0,0,0-2.987-1.919c-1.146-.288-2.339-.372-3.467-.722-2.311-.716-4.369-2.534-6.783-2.364a1.231,1.231,0,0,0-.526.128c-.544.308-.458,1.093-.493,1.718a4.744,4.744,0,0,1-2.216,3.347,39.453,39.453,0,0,0-3.436,2.324A1.534,1.534,0,0,0,788.477,317.242Z" transform="translate(-559.028 -257.653)" fill="#3f3d56"/>
      <path id="Path_71131" data-name="Path 71131" d="M719.231,358.973a9.517,9.517,0,0,1-1.7.872,5.574,5.574,0,0,0-1.624.788,2.545,2.545,0,0,0-.565.7,3.1,3.1,0,0,0,2.861,4.623,6.229,6.229,0,0,0,2.116-.631l5.685-2.463a4.471,4.471,0,0,0,2.456-1.85.43.43,0,0,0,.055-.294.486.486,0,0,0-.234-.245,12.7,12.7,0,0,1-3.31-3.121c-.233-.317-.519-1.064-.848-1.254C722.925,355.4,720.194,358.348,719.231,358.973Z" transform="translate(-521.719 -290.355)" fill="#a0616a"/>
      <path id="Path_71132" data-name="Path 71132" d="M894.168,359.084l2.1,2.394c.45.514.9,1.029,1.311,1.575a18.38,18.38,0,0,1,2.4,4.522,7.9,7.9,0,0,1,.675,3.738,9.147,9.147,0,0,1-.524,1.9,23.668,23.668,0,0,1-1.424,3.43,19.541,19.541,0,0,1-1.6,2.4,56.081,56.081,0,0,1-5.313,6.077,6.925,6.925,0,0,0-1.329,2.815,11.757,11.757,0,0,1-3.268,4.452,9.093,9.093,0,0,1-1.4,1.208,4.57,4.57,0,0,1-2.554.727,2.8,2.8,0,0,1-1.15-.238,2.974,2.974,0,0,1-1.461-2.476,5.267,5.267,0,0,1,.441-2.648c1.2-2.664,4.291-3.819,6.474-5.763a21.027,21.027,0,0,0,3.225-3.988,13.786,13.786,0,0,0,1.631-2.858c.487-1.3.3-2.841.724-4.163.18-.559.5-1.064.694-1.618a1.888,1.888,0,0,0-.1-1.692,2.459,2.459,0,0,0-.949-.695c-1.395-.708-2.957-1.619-3.223-3.16a3.386,3.386,0,0,1,.624-2.413,10.055,10.055,0,0,1,1.759-1.843C892.533,360.23,893.559,359.623,894.168,359.084Z" transform="translate(-635.883 -292.487)" fill="#a0616a"/>
      <path id="Path_71133" data-name="Path 71133" d="M702.968,371.633a3.894,3.894,0,0,0-1.58-1.882,2.91,2.91,0,0,0-2.3-.01,8.631,8.631,0,0,0-2.015,1.218l-1.807,1.332a4.448,4.448,0,0,0-1.073.99,4.178,4.178,0,0,0-.559,1.533,10.954,10.954,0,0,0-.284,3.791,10.776,10.776,0,0,0,2.867,5.367,4.771,4.771,0,0,0,3.173,1.988,1.455,1.455,0,0,0,1.4-.706,1.758,1.758,0,0,0,.125-.629,14.006,14.006,0,0,0-1.622-6.562,4.206,4.206,0,0,1-.523-1.763.484.484,0,0,1,.077-.3.5.5,0,0,1,.308-.151c1.3-.257,3.532.751,4.442-.689C704.2,374.231,703.387,372.48,702.968,371.633Z" transform="translate(-506.801 -299.673)" fill="#a0616a"/>
      <path id="Path_71134" data-name="Path 71134" d="M799.489,246.966a1.173,1.173,0,0,1,.08-.547c.208-.368.75-.268,1.16-.164,1.646.415,3.381.039,5.076.136s3.6.944,3.945,2.608a12.378,12.378,0,0,0,3.13-3.216,3.861,3.861,0,0,0,.816-2.355c-.092-1.218-1.114-2.129-2.06-2.9l-2.82-2.3a4.249,4.249,0,0,0-1.263-.8,6.293,6.293,0,0,0-2.05-.116c-2.053,0-4.242-.933-6.067.006a6.549,6.549,0,0,0-1.89,1.719l-2.517,2.979a1.591,1.591,0,0,0-.4.682,3.027,3.027,0,0,0,.18,1.088c.119.666-.168,1.376.053,2.015.366,1.061,1.654,1.211,2.442,1.82.294.227.754,1,1.1.986C799.036,248.584,799.472,247.457,799.489,246.966Z" transform="translate(-576.621 -208.276)" fill="#3f3d56"/>
      <path id="Path_71135" data-name="Path 71135" d="M745.673,334.422a3.278,3.278,0,0,0-.844.785c-.3.447-.356,1.011-.609,1.483-.543,1.009-1.814,1.368-2.606,2.2a.82.82,0,0,0-.25.43.957.957,0,0,0,.213.618l3.822,6.009c1.272.112,2.493-.685,3.766-.579a3.784,3.784,0,0,0,1.418.063,4.07,4.07,0,0,0,.91-.556c.759-.48,1.771-.536,2.408-1.17a3.3,3.3,0,0,0,.682-2.422,9.736,9.736,0,0,0-.227-2.228c-.563-2.306-2.327-4.076-3.432-6.119-.538-.995-.831-1.577-1.971-.894S746.751,333.633,745.673,334.422Z" transform="translate(-539.924 -273.643)" fill="#3f3d56"/>
      <path id="Path_71136" data-name="Path 71136" d="M890.009,326.091a8.942,8.942,0,0,1,1.923,1.684c.582.751.912,1.67,1.471,2.438a27.2,27.2,0,0,0,1.9,2.006,15.493,15.493,0,0,1,2.185,3.559,53.161,53.161,0,0,1-4.944,5.588,1.6,1.6,0,0,1-.751.493,1.211,1.211,0,0,1-1.061-.433c-.275-.289-.47-.645-.734-.945a3.78,3.78,0,0,0-2.337-1.13,16.053,16.053,0,0,0-2.648-.036,1.047,1.047,0,0,1-.565-.1.949.949,0,0,1-.308-.354c-1.035-1.761-.7-3.972-.337-5.981l.838-4.611a10.354,10.354,0,0,1,.7-2.563c.317-.678,1.027-1.828,1.9-1.625S889.269,325.559,890.009,326.091Z" transform="translate(-637.842 -268.352)" fill="#3f3d56"/>
      <ellipse id="Ellipse_1364" data-name="Ellipse 1364" cx="12.744" cy="12.767" rx="12.744" ry="12.767" transform="translate(86.083 62.484)" fill="#fff"/>
      <path id="Path_71137" data-name="Path 71137" d="M377.46,338.851a15.23,15.23,0,1,0,15.23,15.23A15.23,15.23,0,0,0,377.46,338.851ZM374.333,362.2l-7.805-7.805,2.189-2.189,5.623,5.623,11.869-11.869,2.189,2.189L374.333,362.2Z" transform="translate(-278.633 -278.543)" fill="#ff5894"/>
    </g>
  </g>
</svg>
