<svg xmlns="http://www.w3.org/2000/svg" width="22.221" height="19.765" viewBox="0 0 22.221 19.765">
  <g id="_002-ecommerce" data-name="002-ecommerce" transform="translate(0.1 0.1)">
    <path id="Path_710" data-name="Path 710" d="M85.308,329a.323.323,0,0,0-.323.323v.688a.323.323,0,0,0,.323.323h2.478a.323.323,0,0,0,.323-.323v-2.347l.064.058a.323.323,0,0,0,.314.068l1.565-.5a.323.323,0,0,0,.123-.543l-1.512-1.418a.323.323,0,0,0-.221-.087h-.9a.323.323,0,0,0-.189.061,1.243,1.243,0,0,1-1.616,0,.323.323,0,0,0-.189-.061h-.9a.323.323,0,0,0-.221.087l-1.512,1.418a.323.323,0,0,0,.123.543l1.565.5a.323.323,0,0,0,.314-.068l.064-.058v.368a.323.323,0,1,0,.645,0v-1.1a.323.323,0,0,0-.539-.239l-.466.422-.864-.275,1.018-.954h.67a1.857,1.857,0,0,0,2.195,0h.67l1.018.954-.864.275L88,326.7a.323.323,0,0,0-.539.239v2.751H85.631v-.366A.322.322,0,0,0,85.308,329Z" transform="translate(-79.254 -312.484)" fill="#401db1" stroke="#000" stroke-width="0.2"/>
    <path id="Path_711" data-name="Path 711" d="M21.966,34.853h0l-.509-.776a.323.323,0,0,0-.132-.617h-.273l-.672-1.024V30.187a1.639,1.639,0,0,0-1.637-1.637H9.4a.323.323,0,1,0,0,.645h9.342a.993.993,0,0,1,.992.992v2.021H2.286V30.187a.993.993,0,0,1,.992-.992H8.11a.323.323,0,1,0,0-.645H3.278a1.639,1.639,0,0,0-1.637,1.637v2.248L.969,33.46H.7a.323.323,0,0,0-.132.617l-.509.776A.316.316,0,0,0,0,35.033v.931a2.107,2.107,0,0,0,1.641,2.052v8.461a1.639,1.639,0,0,0,1.637,1.637H18.742a1.639,1.639,0,0,0,1.637-1.637V44.8a.323.323,0,0,0-.645,0v1.673a.993.993,0,0,1-.992.992H3.278a.993.993,0,0,1-.992-.992V38.06a2.105,2.105,0,0,0,1.6-.978,2.1,2.1,0,0,0,3.563,0,2.1,2.1,0,0,0,3.563,0,2.1,2.1,0,0,0,3.563,0,2.1,2.1,0,0,0,3.563,0,2.105,2.105,0,0,0,1.6.978v5.454a.323.323,0,0,0,.645,0v-5.5a2.107,2.107,0,0,0,1.641-2.052v-.931a.332.332,0,0,0-.055-.18ZM.92,34.71l.4-.605H20.7l.4.605Zm1.218-1.856H19.883l.4.605H1.741ZM2.1,37.423A1.46,1.46,0,0,1,.645,35.964v-.609H3.563v.609A1.46,1.46,0,0,1,2.1,37.423Zm3.563,0a1.46,1.46,0,0,1-1.459-1.459v-.609H7.125v.609A1.46,1.46,0,0,1,5.667,37.423Zm3.563,0a1.46,1.46,0,0,1-1.459-1.459v-.609h2.917v.609a1.46,1.46,0,0,1-1.459,1.459Zm3.563,0a1.46,1.46,0,0,1-1.459-1.459v-.609H14.25v.609A1.46,1.46,0,0,1,12.792,37.423Zm3.563,0A1.46,1.46,0,0,1,14.9,35.964v-.609h2.917v.609A1.46,1.46,0,0,1,16.354,37.423Zm5.021-1.459a1.459,1.459,0,0,1-2.917,0v-.609h2.917Z" transform="translate(0 -28.55)" fill="#401db1" stroke="#000" stroke-width="0.2"/>
    <path id="Path_712" data-name="Path 712" d="M290.659,379.754h4.108a.793.793,0,0,0,.792-.792v-1.283a.793.793,0,0,0-.792-.792h-4.108a.793.793,0,0,0-.792.792v1.283A.793.793,0,0,0,290.659,379.754Zm-.147-2.075a.147.147,0,0,1,.147-.147h4.108a.147.147,0,0,1,.147.147v1.283a.147.147,0,0,1-.147.147h-4.108a.147.147,0,0,1-.147-.147Z" transform="translate(-277.398 -361.903)" fill="#401db1" stroke="#000" stroke-width="0.2"/>
    <path id="Path_713" data-name="Path 713" d="M271.048,262.137h.662a.323.323,0,0,0,0-.645h-.662a.323.323,0,0,0,0,.645Z" transform="translate(-259.079 -251.472)" fill="#401db1" stroke="#000" stroke-width="0.2"/>
    <path id="Path_714" data-name="Path 714" d="M316.881,262.137a.323.323,0,0,0,0-.645h-.662a.323.323,0,0,0,0,.645Z" transform="translate(-302.308 -251.472)" fill="#401db1" stroke="#000" stroke-width="0.2"/>
    <path id="Path_715" data-name="Path 715" d="M362.053,262.137a.323.323,0,0,0,0-.645h-.662a.323.323,0,0,0,0,.645Z" transform="translate(-345.537 -251.472)" fill="#401db1" stroke="#000" stroke-width="0.2"/>
    <path id="Path_716" data-name="Path 716" d="M407.548,261.815a.323.323,0,0,0-.323-.323h-.662a.323.323,0,0,0,0,.645h.662A.323.323,0,0,0,407.548,261.815Z" transform="translate(-388.766 -251.472)" fill="#401db1" stroke="#000" stroke-width="0.2"/>
    <path id="Path_717" data-name="Path 717" d="M271.048,298.353h5.265a.323.323,0,0,0,0-.645h-5.265a.323.323,0,0,0,0,.645Z" transform="translate(-259.079 -286.13)" fill="#401db1" stroke="#000" stroke-width="0.2"/>
    <path id="Path_718" data-name="Path 718" d="M271.048,330.891h3.974a.323.323,0,1,0,0-.645h-3.974a.323.323,0,0,0,0,.645Z" transform="translate(-259.079 -317.268)" fill="#401db1" stroke="#000" stroke-width="0.2"/>
    <path id="Path_719" data-name="Path 719" d="M86.991,262.137h1.616a.323.323,0,0,0,0-.645H86.991a.323.323,0,0,0,0,.645Z" transform="translate(-82.94 -251.472)" fill="#401db1" stroke="#000" stroke-width="0.2"/>
    <path id="Path_720" data-name="Path 720" d="M86.991,291.631h.755a.323.323,0,0,0,0-.645h-.755a.323.323,0,0,0,0,.645Z" transform="translate(-82.94 -279.697)" fill="#401db1" stroke="#000" stroke-width="0.2"/>
    <path id="Path_721" data-name="Path 721" d="M77.269,71.078a.323.323,0,1,0,0,.645h.581a.323.323,0,0,0,0-.645Z" transform="translate(-73.636 -69.249)" fill="#401db1" stroke="#000" stroke-width="0.2"/>
    <path id="Path_722" data-name="Path 722" d="M124.552,71.078a.323.323,0,1,0,0,.645h.581a.323.323,0,1,0,0-.645Z" transform="translate(-118.885 -69.249)" fill="#401db1" stroke="#000" stroke-width="0.2"/>
    <path id="Path_723" data-name="Path 723" d="M171.834,71.078a.323.323,0,1,0,0,.645h.581a.323.323,0,1,0,0-.645Z" transform="translate(-164.133 -69.249)" fill="#401db1" stroke="#000" stroke-width="0.2"/>
  </g>
</svg>
