<svg xmlns="http://www.w3.org/2000/svg" width="14" height="10.691" viewBox="0 0 14 10.691">
  <g id="email" transform="translate(0 -60.5)" opacity="0.8">
    <g id="Group_2" data-name="Group 2" transform="translate(0 60.5)">
      <path id="Path_2" data-name="Path 2" d="M13.453,66.816A.547.547,0,0,0,14,66.27V62.687A2.19,2.19,0,0,0,11.813,60.5H2.188A2.19,2.19,0,0,0,0,62.687V69a2.19,2.19,0,0,0,2.188,2.188h9.625A2.19,2.19,0,0,0,14,69a.547.547,0,1,0-1.094,0A1.1,1.1,0,0,1,11.813,70.1H2.188A1.1,1.1,0,0,1,1.094,69V62.8l4.751,2.954a2.174,2.174,0,0,0,2.31,0L12.906,62.8V66.27A.547.547,0,0,0,13.453,66.816ZM7.578,64.829a1.087,1.087,0,0,1-1.155,0L1.55,61.8a1.088,1.088,0,0,1,.637-.205h9.625a1.088,1.088,0,0,1,.637.205Z" transform="translate(0 -60.5)" fill="#1a1a1a"/>
    </g>
  </g>
</svg>
