<svg height="512" viewBox="0 0 50 60" width="512" xmlns="http://www.w3.org/2000/svg"><g id="032---Employee-Details"><path id="Shape" d="m4.983 24.647c.021.011.034.029.056.039s.058.019.085.031l.019.007c4.41319243 1.7004879 9.3008076 1.7004879 13.714 0l.019-.007c.027-.012.058-.019.085-.031s.035-.028.056-.039c.1891545-.0978784.3411882-.2548277.433-.447.014-.03.034-.055.045-.086 1.2639263-3.7108709.1573107-7.8176003-2.8-10.391 1.9521229-2.4559783 1.6826206-6.0012189-.6183223-8.13388734-2.300943-2.13266845-5.8564124-2.13266845-8.15735536 0-2.30094296 2.13266844-2.57044527 5.67790904-.61832234 8.13388734-2.95065691 2.5671359-4.06002057 6.6613947-2.809 10.367 0 .009.058.11.058.11.09211403.191962.24406534.3488263.433.447zm1.3-1.634c-.6411477-2.292565-.18395791-4.7528221 1.238-6.662.36498758-.4873054.80002575-.9179628 1.291-1.278 1.9467524 1.2358786 4.4322476 1.2358786 6.379 0 2.3677509 1.8935782 3.3655435 5.0245961 2.53 7.939-3.6995916 1.3168286-7.74017829 1.3171818-11.44.001zm5.717-17.013c2.209139 0 4 1.790861 4 4s-1.790861 4-4 4-4-1.790861-4-4 1.790861-4 4-4z"/><path id="Shape" d="m23 8h4c.5522847 0 1-.44771525 1-1s-.4477153-1-1-1h-4c-.5522847 0-1 .44771525-1 1s.4477153 1 1 1z"/><path id="Shape" d="m31 8h7c.5522847 0 1-.44771525 1-1s-.4477153-1-1-1h-7c-.5522847 0-1 .44771525-1 1s.4477153 1 1 1z"/><path id="Shape" d="m38 16h-4c-.5522847 0-1 .4477153-1 1s.4477153 1 1 1h4c.5522847 0 1-.4477153 1-1s-.4477153-1-1-1z"/><path id="Shape" d="m23 18h7c.5522847 0 1-.4477153 1-1s-.4477153-1-1-1h-7c-.5522847 0-1 .4477153-1 1s.4477153 1 1 1z"/><path id="Shape" d="m23 13h15c.5522847 0 1-.4477153 1-1s-.4477153-1-1-1h-15c-.5522847 0-1 .4477153-1 1s.4477153 1 1 1z"/><path id="Shape" d="m23 23h15c.5522847 0 1-.4477153 1-1s-.4477153-1-1-1h-15c-.5522847 0-1 .4477153-1 1s.4477153 1 1 1z"/><path id="Shape" d="m29.5 29c-5.7989899 0-10.5 4.7010101-10.5 10.5s4.7010101 10.5 10.5 10.5 10.5-4.7010101 10.5-10.5c-.006613-5.7962485-4.7037515-10.493387-10.5-10.5zm0 19c-3.4379291 0-6.5373375-2.0709585-7.852976-5.2471908s-.5884146-6.8322339 1.8425684-9.2632168c2.4309829-2.430983 6.0869845-3.1582069 9.2632168-1.8425684s5.2471908 4.4150469 5.2471908 7.852976c-.0055104 4.692136-3.807864 8.4944896-8.5 8.5z"/><path id="Shape" d="m41.643 47.4c1.538308-2.347575 2.3575107-5.0933116 2.357-7.9v-35.5c0-2.209139-1.790861-4-4-4h-36c-2.209139 0-4 1.790861-4 4v46c0 2.209139 1.790861 4 4 4h25.5c2.8066884.0005107 5.552425-.818692 7.9-2.357l7.478 7.47c.7513371.7781651 1.8638923 1.0907326 2.9105565.8177079 1.0466642-.2730246 1.8647812-1.0892121 2.1402765-2.1352287.2754954-1.0460166-.0344442-2.1593067-.810833-2.9124792zm-12.143 4.6c-6.9035594 0-12.5-5.5964406-12.5-12.5s5.5964406-12.5 12.5-12.5 12.5 5.5964406 12.5 12.5c-.0077154 6.900361-5.599639 12.4922846-12.5 12.5zm-25.5 0c-1.1045695 0-2-.8954305-2-2v-46c0-1.1045695.8954305-2 2-2h36c1.1045695 0 2 .8954305 2 2v28.188c-3.0601908-5.2478356-9.0695167-8.0290164-15.0506266-6.9655922s-10.6634799 5.7455579-11.7272059 11.726614c-1.0637261 5.9810562 1.7171514 11.9905225 6.9648325 15.0509782zm43.7 5.708c-.3888435.3811429-1.0111565.3811429-1.4 0l-7.289-7.281c.5036071-.4386065.9763935-.9113929 1.415-1.415l7.282 7.288c.1903658.1852699.2970851.4400674.2955758.7057021s-.111117.5192032-.3035758.7022979z"/><path id="Shape" d="m14 30h-8c-.55228475 0-1 .4477153-1 1s.44771525 1 1 1h8c.5522847 0 1-.4477153 1-1s-.4477153-1-1-1z"/><path id="Shape" d="m13 45h-7c-.55228475 0-1 .4477153-1 1s.44771525 1 1 1h7c.5522847 0 1-.4477153 1-1s-.4477153-1-1-1z"/><path id="Shape" d="m12 35h-6c-.55228475 0-1 .4477153-1 1s.44771525 1 1 1h6c.5522847 0 1-.4477153 1-1s-.4477153-1-1-1z"/><path id="Shape" d="m12 40h-6c-.55228475 0-1 .4477153-1 1s.44771525 1 1 1h6c.5522847 0 1-.4477153 1-1s-.4477153-1-1-1z"/></g></svg>