<svg xmlns="http://www.w3.org/2000/svg" width="385.411" height="399.285" viewBox="0 0 385.411 399.285">
  <path id="Union_7" data-name="Union 7" d="M32.657,292.493,3.734,294.008,54.158,219.92l57.891,68.411-28.437,1.49c-2.134,49.212,19.064,95.244,71.458,109.283q-3.276.181-6.472.18C86.167,399.288,47.88,348.241,32.657,292.493Zm90.3,64c0-4.593-.006-7.227-.012-8.651.022.76.079.416.2-6.131,1.5-80.177,12.908-103.292,94.3-117.982,0,0,11.586,14.761,38.586,14.761s38.584-14.761,38.584-14.761c82.293,14.852,93.047,38.315,94.352,120.657.083,5.267.127,6.179.149,5.708,0,1.4-.005,3.449-.005,6.4,0,0-19.594,39.5-133.08,39.5S122.959,356.5,122.959,356.5Zm266.166-6.4C389.138,344.623,389.163,349.308,389.125,350.1Zm-266.176-2.251C122.925,347.034,122.936,344.964,122.949,347.846ZM185.575,131.58c0-47.269,10.36-85.587,70.465-85.587S326.5,84.311,326.5,131.58s-31.549,85.586-70.464,85.586S185.575,178.848,185.575,131.58ZM7.27,182.748c0-2.7,0-4.253-.006-5.092.013.447.046.245.119-3.608.883-47.188,7.6-60.792,55.5-69.439,0,0,6.818,8.688,22.71,8.688s22.709-8.688,22.709-8.688c48.434,8.742,54.762,22.55,55.531,71.013a31.485,31.485,0,0,0,.087,3.36c0,.822,0,2.03,0,3.767,0,0-11.533,23.245-78.324,23.245S7.27,182.748,7.27,182.748Zm156.652-3.767C163.93,175.759,163.945,178.516,163.922,178.98ZM7.264,177.656C7.25,177.178,7.257,175.96,7.264,177.656ZM44.123,50.372C44.123,22.552,50.22,0,85.595,0s41.471,22.552,41.471,50.372S108.5,100.744,85.595,100.744,44.123,78.192,44.123,50.372Z" transform="translate(-3.734)"/>
</svg>
