<svg xmlns="http://www.w3.org/2000/svg" width="11.397" height="14.326" viewBox="0 0 11.397 14.326">
  <g id="_001-user" data-name="001-user" transform="translate(-41.827 0.1)">
    <g id="Group_476" data-name="Group 476" transform="translate(41.927)">
      <g id="Group_475" data-name="Group 475">
        <path id="Path_763" data-name="Path 763" d="M113.4,7.335a2.916,2.916,0,0,0,2.3-1.43,4.912,4.912,0,0,0,.912-2.692,3.214,3.214,0,0,0-6.427,0,4.912,4.912,0,0,0,.912,2.692A2.916,2.916,0,0,0,113.4,7.335Zm0-6.811a2.693,2.693,0,0,1,2.69,2.69,4.435,4.435,0,0,1-.817,2.391,2.056,2.056,0,0,1-3.745,0,4.434,4.434,0,0,1-.817-2.391A2.693,2.693,0,0,1,113.4.524Z" transform="translate(-107.805)" fill="#fff" stroke="#fff" stroke-width="0.2"/>
        <path id="Path_764" data-name="Path 764" d="M52.235,194.371a5.609,5.609,0,0,0-2.305-2.029.262.262,0,0,0-.3.051,2.786,2.786,0,0,1-4.212,0,.262.262,0,0,0-.3-.051,5.6,5.6,0,0,0-3.195,5.057v0a.262.262,0,0,0,.086.194,8.209,8.209,0,0,0,11.025,0,.262.262,0,0,0,.086-.194v0A5.578,5.578,0,0,0,52.235,194.371ZM47.525,199.2a7.666,7.666,0,0,1-5.073-1.912,5.074,5.074,0,0,1,2.734-4.392,3.273,3.273,0,0,0,4.679,0,5.074,5.074,0,0,1,2.733,4.392A7.666,7.666,0,0,1,47.525,199.2Z" transform="translate(-41.927 -185.599)" fill="#fff" stroke="#fff" stroke-width="0.2"/>
      </g>
    </g>
  </g>
</svg>
