<svg xmlns="http://www.w3.org/2000/svg" xmlns:xlink="http://www.w3.org/1999/xlink" width="232.765" height="31.793" viewBox="0 0 232.765 31.793">
  <defs>
    <linearGradient id="linear-gradient" x1="0.5" y1="-0.07" x2="0.5" y2="0.906" gradientUnits="objectBoundingBox">
      <stop offset="0" stop-color="#199afe"/>
      <stop offset="1" stop-color="#8f06fa"/>
    </linearGradient>
    <linearGradient id="linear-gradient-2" x1="0.5" y1="-0.039" x2="0.5" y2="0.891" gradientUnits="objectBoundingBox">
      <stop offset="0" stop-color="#ff8a55"/>
      <stop offset="1" stop-color="#ff44af"/>
    </linearGradient>
  </defs>
  <g id="Group_39638" data-name="Group 39638" transform="translate(12478 -1455.271)">
    <g id="Group_39637" data-name="Group 39637" transform="translate(-12426.861 1461.614)">
      <path id="Path_1" data-name="Path 1" d="M378.2,538.629v-13.4a9.135,9.135,0,0,1,1.1-4.586,7.514,7.514,0,0,1,3.011-2.964,9.144,9.144,0,0,1,4.416-1.034,8.682,8.682,0,0,1,2.454.34,8.035,8.035,0,0,1,2.131.973,7.577,7.577,0,0,1,1.714,1.529,7.976,7.976,0,0,1,1.729-1.56,7.417,7.417,0,0,1,2.131-.957,9.245,9.245,0,0,1,2.47-.324,9.145,9.145,0,0,1,4.416,1.034,7.521,7.521,0,0,1,3.011,2.964,9.139,9.139,0,0,1,1.1,4.586v13.4h-4.416V524.949a4.907,4.907,0,0,0-.494-2.223,3.994,3.994,0,0,0-1.42-1.59,4.292,4.292,0,0,0-4.385,0,3.994,3.994,0,0,0-1.42,1.59,4.907,4.907,0,0,0-.494,2.223v13.679h-4.416V524.949a4.912,4.912,0,0,0-.494-2.223,4,4,0,0,0-1.42-1.59,4.292,4.292,0,0,0-4.385,0,3.994,3.994,0,0,0-1.42,1.59,4.907,4.907,0,0,0-.494,2.223v13.679Z" transform="translate(-378.199 -516.643)" fill="#401db1"/>
      <path id="Path_2" data-name="Path 2" d="M459.3,539.18v-3.891h6.176a1.911,1.911,0,0,0,1.42-.6,1.987,1.987,0,0,0,.587-1.436V521.486h-5.5v-3.922H471.9v15.161a6.61,6.61,0,0,1-.8,3.227,6.2,6.2,0,0,1-2.239,2.347,6.343,6.343,0,0,1-3.381.88Z" transform="translate(-426.695 -517.194)" fill="#401db1"/>
      <path id="Path_3" data-name="Path 3" d="M495.093,538.629l7.04-19.207a4.021,4.021,0,0,1,1.652-2.084,4.755,4.755,0,0,1,2.547-.695,5.012,5.012,0,0,1,2.563.664,3.716,3.716,0,0,1,1.637,2.084l7.071,19.238h-4.848l-1.451-4.354H501.238l-1.513,4.354Zm7.473-8.245h7.442l-3.119-9.479a.526.526,0,0,0-.2-.309.569.569,0,0,0-.324-.093.452.452,0,0,0-.309.108.656.656,0,0,0-.185.293Z" transform="translate(-448.096 -516.643)" fill="#401db1"/>
      <path id="Path_4" data-name="Path 4" d="M560.807,539.18a6.362,6.362,0,0,1-3.366-.88,6.161,6.161,0,0,1-2.254-2.347,6.605,6.605,0,0,1-.8-3.227V517.565H558.8v15.686a1.984,1.984,0,0,0,.587,1.436,1.909,1.909,0,0,0,1.42.6h5.712v3.891Z" transform="translate(-483.549 -517.194)" fill="#401db1"/>
      <path id="Path_5" data-name="Path 5" d="M590.639,539.18V537.2h9.418a3.934,3.934,0,0,0,2.177-.587,3.776,3.776,0,0,0,1.374-1.529,4.392,4.392,0,0,0,.463-1.961,4.227,4.227,0,0,0-.448-1.915,3.6,3.6,0,0,0-1.328-1.451,3.877,3.877,0,0,0-2.115-.556h-4.323a6.408,6.408,0,0,1-3.2-.757,5.285,5.285,0,0,1-2.069-2.054,5.837,5.837,0,0,1-.726-2.9,6.1,6.1,0,0,1,.726-2.949,5.627,5.627,0,0,1,2.069-2.161,6.027,6.027,0,0,1,3.2-.818H604.9v1.976h-8.893a3.823,3.823,0,0,0-2.084.556,3.861,3.861,0,0,0-1.359,1.436,3.793,3.793,0,0,0-.478,1.837,3.9,3.9,0,0,0,.448,1.822,3.6,3.6,0,0,0,1.3,1.405,3.806,3.806,0,0,0,2.085.54h4.354a6.5,6.5,0,0,1,3.288.772,5.155,5.155,0,0,1,2.038,2.084,6.08,6.08,0,0,1,.694,2.887,6.988,6.988,0,0,1-.725,3.2,5.579,5.579,0,0,1-2.069,2.27,6,6,0,0,1-3.227.834Z" transform="translate(-504.767 -517.194)" fill="#401db1"/>
      <path id="Path_6" data-name="Path 6" d="M643.264,539.18V519.541h-6.855v-1.976h15.934v1.976h-6.855V539.18Z" transform="translate(-532.596 -517.194)" fill="#401db1"/>
      <path id="Path_7" data-name="Path 7" d="M690.673,539.581a12.01,12.01,0,0,1-4.6-.849,10.184,10.184,0,0,1-3.536-2.378,10.68,10.68,0,0,1-2.254-3.535,11.964,11.964,0,0,1,0-8.538,10.559,10.559,0,0,1,2.254-3.5,10.31,10.31,0,0,1,3.536-2.362,12.009,12.009,0,0,1,4.6-.849h11.734v1.976h-6.022a9.4,9.4,0,0,1,2.949,2.192,9.635,9.635,0,0,1,1.868,3.1,10.6,10.6,0,0,1,.649,3.721,11.559,11.559,0,0,1-.788,4.261,10.689,10.689,0,0,1-2.254,3.535,10.227,10.227,0,0,1-3.52,2.378A11.984,11.984,0,0,1,690.673,539.581Zm0-2.007a9.13,9.13,0,0,0,3.566-.68,8.762,8.762,0,0,0,2.841-1.9,8.526,8.526,0,0,0,1.883-2.856,9.988,9.988,0,0,0,0-7.164,8.545,8.545,0,0,0-4.724-4.74,9.871,9.871,0,0,0-7.117,0,8.51,8.51,0,0,0-4.74,4.74,9.991,9.991,0,0,0,0,7.164A8.514,8.514,0,0,0,684.266,535a8.711,8.711,0,0,0,2.856,1.9A9.164,9.164,0,0,0,690.673,537.574Z" transform="translate(-558.36 -517.194)" fill="#401db1"/>
      <path id="Path_8" data-name="Path 8" d="M744.855,539.18V517.565h9.387a7.619,7.619,0,0,1,3.613.864,6.761,6.761,0,0,1,2.609,2.409,7.032,7.032,0,0,1-.17,7.411,6.689,6.689,0,0,1-3.057,2.408l2.44,5.281a2.614,2.614,0,0,0,.679.942,1.6,1.6,0,0,0,1.019.294h1.3v2.007h-1.605a3.4,3.4,0,0,1-2.007-.587,4.5,4.5,0,0,1-1.39-1.667l-2.656-5.744-.756.062q-.387.031-.757.031h-6.423v7.9Zm2.223-9.881h6.793a6.184,6.184,0,0,0,2.686-.571,4.783,4.783,0,0,0,.016-8.615,5.95,5.95,0,0,0-2.609-.571h-6.886Z" transform="translate(-597.442 -517.194)" fill="#401db1"/>
      <path id="Path_9" data-name="Path 9" d="M800.444,539.225a5.645,5.645,0,0,1-5.172-3.041,6.156,6.156,0,0,1-.726-2.918,5.778,5.778,0,0,1,.788-2.918,5.042,5.042,0,0,1,2.3-2.084,5.18,5.18,0,0,1-2.239-2.054,5.4,5.4,0,0,1-.726-2.7,5.79,5.79,0,0,1,.772-2.964,5.909,5.909,0,0,1,2.069-2.115,5.482,5.482,0,0,1,2.9-.788h8.368v1.976H800.66a3.629,3.629,0,0,0-3.273,1.915,4.02,4.02,0,0,0-.494,1.976,3.5,3.5,0,0,0,.525,1.853,3.946,3.946,0,0,0,1.39,1.374,3.816,3.816,0,0,0,1.976.509h6.855v1.977h-6.67a4.21,4.21,0,0,0-2.27.587,3.841,3.841,0,0,0-1.42,1.513,4.238,4.238,0,0,0-.479,1.976,4.107,4.107,0,0,0,.463,1.915,3.783,3.783,0,0,0,1.359,1.467,3.931,3.931,0,0,0,2.161.571h8v1.976Z" transform="translate(-627.155 -517.24)" fill="#401db1"/>
    </g>
    <path id="Path_71102" data-name="Path 71102" d="M291.759,506.582a10.708,10.708,0,0,0-4.375-4.243,14.572,14.572,0,0,0-9.849-1.055,10.975,10.975,0,0,0-2.946,1.231,11.308,11.308,0,0,0-2.44,2,10.857,10.857,0,0,0-2.418-1.957,11.983,11.983,0,0,0-2.946-1.252,12.606,12.606,0,0,0-3.385-.44,13.6,13.6,0,0,0-6.442,1.473,10.7,10.7,0,0,0-4.374,4.243A12.98,12.98,0,0,0,251,513.133v16.179l7.255,3.347v-19.79a6.447,6.447,0,0,1,.616-2.879,4.9,4.9,0,0,1,1.781-2,4.973,4.973,0,0,1,2.748-.748,4.864,4.864,0,0,1,2.726.748,5.112,5.112,0,0,1,1.78,2,5.826,5.826,0,0,1,.566,1.833h7.4a5.967,5.967,0,0,1,.546-1.833,4.9,4.9,0,0,1,1.781-2,5.42,5.42,0,0,1,5.5,0,4.9,4.9,0,0,1,1.781,2,6.447,6.447,0,0,1,.615,2.879v16.443l7.255,3.347V513.133A12.988,12.988,0,0,0,291.759,506.582Z" transform="translate(-12729 954.405)" fill="url(#linear-gradient)"/>
    <path id="Path_71103" data-name="Path 71103" d="M299.837,539.419l-7.977-7.977-7.977,7.977h4.322v8.176l7.255,3.347V539.419Z" transform="translate(-12748.663 936.122)" fill="url(#linear-gradient-2)"/>
  </g>
</svg>
