<svg xmlns="http://www.w3.org/2000/svg" width="14" height="14" viewBox="0 0 14 14">
  <g id="phone-call" opacity="0.8">
    <path id="Path_1" data-name="Path 1" d="M14,11.282a2.071,2.071,0,0,0-.635-1.423A5.086,5.086,0,0,0,11.35,8.521a2.254,2.254,0,0,0-2.314.657l0,0-.739.734a11.08,11.08,0,0,1-2.331-1.8L5.89,8.04a11.081,11.081,0,0,1-1.8-2.331l.734-.739,0,0A2.254,2.254,0,0,0,5.48,2.652,5.087,5.087,0,0,0,4.142.638a2.081,2.081,0,0,0-2.888-.1L1.239.548l-.021.02A4.437,4.437,0,0,0,0,3.818,10.385,10.385,0,0,0,3.306,10.7a13.329,13.329,0,0,0,1.311,1.142.547.547,0,0,0,.665-.868,12.246,12.246,0,0,1-1.2-1.047,9.288,9.288,0,0,1-2.985-6.11,3.379,3.379,0,0,1,.887-2.461l0,0a.984.984,0,0,1,1.37.049c1.416,1.468,1.313,2.162.688,2.8L3.029,5.222a.547.547,0,0,0-.111.608,11.051,11.051,0,0,0,2.2,2.984l.072.072a11.049,11.049,0,0,0,2.984,2.2.547.547,0,0,0,.608-.111L9.8,9.959c.642-.626,1.335-.728,2.8.688a.984.984,0,0,1,.05,1.37l0,0a3.368,3.368,0,0,1-2.436.887h-.025a7.091,7.091,0,0,1-2.7-.639.547.547,0,0,0-.433,1A8.068,8.068,0,0,0,10.183,14h.031a4.427,4.427,0,0,0,3.219-1.217l.02-.021.014-.016A2.071,2.071,0,0,0,14,11.282Z" transform="translate(0 -0.002)" fill="#1a1a1a"/>
  </g>
</svg>
