<svg xmlns="http://www.w3.org/2000/svg" width="11.211" height="14" viewBox="0 0 11.211 14">
  <g id="pin" transform="translate(-51.003)" opacity="0.8">
    <g id="Group_4" data-name="Group 4" transform="translate(53.19 2.188)">
      <g id="Group_3" data-name="Group 3" transform="translate(0)">
        <path id="Path_3" data-name="Path 3" d="M134.418,80a3.418,3.418,0,1,0,.937,6.706.547.547,0,1,0-.3-1.052,2.321,2.321,0,1,1,1.589-1.567.547.547,0,1,0,1.048.314,3.42,3.42,0,0,0-3.274-4.4Z" transform="translate(-131 -80)" fill="#1a1a1a"/>
      </g>
    </g>
    <g id="Group_6" data-name="Group 6" transform="translate(51.003)">
      <g id="Group_5" data-name="Group 5" transform="translate(0)">
        <path id="Path_4" data-name="Path 4" d="M60.57,1.64A5.605,5.605,0,0,0,51,5.6a5.857,5.857,0,0,0,.925,3.126,16.648,16.648,0,0,0,1.978,2.454,18.667,18.667,0,0,1,2.076,2.565.547.547,0,0,0,.462.255h.328a.547.547,0,0,0,.462-.255,18.667,18.667,0,0,1,2.076-2.565,16.645,16.645,0,0,0,1.978-2.454A5.858,5.858,0,0,0,62.214,5.6,5.569,5.569,0,0,0,60.57,1.64Zm-2.067,8.8a22.54,22.54,0,0,0-1.895,2.271,22.536,22.536,0,0,0-1.895-2.271C53.311,8.906,52.1,7.579,52.1,5.6a4.512,4.512,0,0,1,9.023,0C61.118,7.579,59.906,8.906,58.5,10.443Z" transform="translate(-51.003)" fill="#1a1a1a"/>
      </g>
    </g>
  </g>
</svg>
