<svg id="_005-sd-card" data-name="005-sd-card" xmlns="http://www.w3.org/2000/svg" width="15.207" height="18.717" viewBox="0 0 15.207 18.717">
  <g id="Group_462" data-name="Group 462" transform="translate(0)">
    <g id="Group_461" data-name="Group 461">
      <path id="Path_734" data-name="Path 734" d="M61.452,0H51.825L48,4.463v12.5a1.755,1.755,0,0,0,1.755,1.755h11.7a1.755,1.755,0,0,0,1.755-1.755V1.755A1.755,1.755,0,0,0,61.452,0Zm.585,16.962a.585.585,0,0,1-.585.585h-11.7a.585.585,0,0,1-.585-.585V15.207h2.34v-1.17H49.17V4.9L52.363,1.17h9.089a.585.585,0,0,1,.585.585Z" transform="translate(-48)" fill="#401db1"/>
      <rect id="Rectangle_320" data-name="Rectangle 320" width="2" height="5" transform="translate(4.082 1.948)" fill="#401db1"/>
      <rect id="Rectangle_321" data-name="Rectangle 321" width="1" height="5" transform="translate(7.082 1.948)" fill="#401db1"/>
      <rect id="Rectangle_322" data-name="Rectangle 322" width="1" height="5" transform="translate(9.082 1.948)" fill="#401db1"/>
      <rect id="Rectangle_323" data-name="Rectangle 323" width="2" height="5" transform="translate(11.082 1.948)" fill="#401db1"/>
    </g>
  </g>
</svg>
