<svg xmlns="http://www.w3.org/2000/svg" xmlns:xlink="http://www.w3.org/1999/xlink" width="338.78" height="225.751" viewBox="0 0 338.78 225.751">
  <defs>
    <linearGradient id="linear-gradient" x1="7.372" y1="27.864" x2="7.361" y2="29.315" gradientUnits="objectBoundingBox">
      <stop offset="0" stop-color="#ffd96f"/>
      <stop offset="1" stop-color="#f2a907"/>
    </linearGradient>
    <linearGradient id="linear-gradient-2" x1="-156.988" y1="-2.682" x2="-157.023" y2="-1.644" xlink:href="#linear-gradient"/>
    <linearGradient id="linear-gradient-3" x1="25.67" y1="9.883" x2="25.651" y2="10.966" xlink:href="#linear-gradient"/>
    <linearGradient id="linear-gradient-4" x1="1.104" y1="0.492" x2="0.075" y2="0.513" xlink:href="#linear-gradient"/>
    <linearGradient id="linear-gradient-5" x1="-1.334" y1="12.863" x2="-1.345" y2="14.313" gradientUnits="objectBoundingBox">
      <stop offset="0" stop-color="#ffda6e"/>
      <stop offset="1" stop-color="#f3aa03"/>
    </linearGradient>
    <linearGradient id="linear-gradient-6" x1="-96.462" y1="-1.635" x2="-96.498" y2="-0.598" xlink:href="#linear-gradient-5"/>
    <linearGradient id="linear-gradient-7" x1="1.165" y1="4.376" x2="1.147" y2="5.459" xlink:href="#linear-gradient-5"/>
    <linearGradient id="linear-gradient-8" x1="0" y1="0.5" x2="1" y2="0.5" xlink:href="#linear-gradient-5"/>
    <linearGradient id="linear-gradient-9" x1="0.5" x2="0.5" y2="1" gradientUnits="objectBoundingBox">
      <stop offset="0" stop-color="#ff8a55"/>
      <stop offset="1" stop-color="#ff44af"/>
    </linearGradient>
  </defs>
  <g id="Group_21" data-name="Group 21" transform="translate(-77.058 -44.42)">
    <g id="Layer_4" data-name="Layer 4" transform="translate(77.058 106.572)">
      <path id="Path_1" data-name="Path 1" d="M407.478,321.8H119.014a233.155,233.155,0,0,1,6.133-114.216c1.661-5.312,3.576-10.685,7.09-15s8.951-7.443,14.482-6.821c10.1,1.136,14.779,12.754,18.295,22.292a170.352,170.352,0,0,0,10.934,23.828c4.579,8.24,11.27,16.961,20.688,17.384,9.072.407,16.6-7.367,20.222-15.7s4.63-17.6,8.136-25.973c3.145-7.513,10.968-15,18.46-11.811,4,1.7,6.237,5.857,8.6,9.5a60.6,60.6,0,0,0,13.507,14.78c4.17,3.264,9.192,6.079,14.462,5.56,10.06-.99,14.819-12.56,18.082-22.128a251.949,251.949,0,0,1,15.436-35.876c1.773-3.373,4.131-7.079,7.9-7.65,2.907-.441,5.748,1.207,7.866,3.247,8.314,8.01,8.53,20.933,9.767,32.411a127.065,127.065,0,0,0,7.446,31.224c1.342,3.556,3.035,7.28,6.287,9.246,6.8,4.108,15.94-1.654,23.381,1.118,5.907,2.2,8.663,8.965,9.8,15.166s1.44,12.876,5.043,18.048c2.245,3.223,5.567,5.528,8.127,8.507C407.965,289.2,409.926,308.5,407.478,321.8Z" transform="translate(-94.417 -159.903)" fill="#e5e4f4" opacity="0.3"/>
      <path id="Path_2" data-name="Path 2" d="M84.073,336.522H415.7a225.984,225.984,0,0,0-5.085-56.312c-1.718-7.678-5.327-16.661-13.1-17.851-8.364-1.28-14.494,7.3-18.96,14.489-5.454,8.776-11.788,17.306-20.408,23s-19.932,8.16-29.473,4.195c-11.447-4.758-17.6-17.116-21.642-28.833-3.024-8.756-7.8-19.579-17.061-19.456-2.934.039-5.709,1.295-8.288,2.7-9.928,5.391-20.217,13.617-31.145,10.755-6.3-1.65-11.147-6.848-14.146-12.626s-4.464-12.2-6.327-18.44A144.925,144.925,0,0,0,212.023,199.6c-3.042-4.59-8.265-9.568-13.247-7.224-2.714,1.277-4.067,4.305-5.1,7.12a133.827,133.827,0,0,0-7.74,35c-.671,8.06-.632,16.3-3.117,24s-8.168,14.987-16.081,16.655c-10.73,2.262-20.856-6.463-26.076-16.107-2.614-4.829-4.591-10.138-8.393-14.1s-10.258-6.154-14.839-3.127c-4.8,3.171-5.1,9.933-5.363,15.679a108.282,108.282,0,0,1-2.109,16.932c-1.342,6.528-5.695,14.5-12.2,13.06-5.837-1.288-10.4-9.957-15.494-6.827-1.807,1.11-2.517,3.348-3,5.413C75.334,302.837,76.492,321.06,84.073,336.522Z" transform="translate(-77.058 -174.624)" fill="#e5e4f4" opacity="0.3"/>
    </g>
    <g id="Layer_3" data-name="Layer 3" transform="translate(114.209 44.42)">
      <g id="Group_3" data-name="Group 3" transform="translate(173.82 177.401)">
        <g id="Group_1" data-name="Group 1" transform="translate(0.421)">
          <path id="Path_3" data-name="Path 3" d="M477.023,419.346c.544-1.761,2.323-2.823,4.043-3.487s3.591-1.137,4.947-2.386c1.935-1.782,2.454-4.823,4.61-6.329,2.283-1.6,5.707-.954,7.756-2.84,1.148-1.056,1.583-2.674,2.532-3.913a5.832,5.832,0,0,1,6.022-2.024,5.83,5.83,0,0,1-3.01,5.595c-1.38.727-3.049.883-4.284,1.836-2.2,1.7-2.149,5.185-4.106,7.167-1.849,1.871-4.933,1.87-7.016,3.477-1.46,1.126-2.242,2.89-3.186,4.473s-2.29,3.158-4.118,3.4Z" transform="translate(-473.156 -385.187)" fill="url(#linear-gradient)"/>
          <path id="Path_4" data-name="Path 4" d="M478.369,410.041c.865-1.628.363-3.638-.379-5.326s-1.727-3.348-1.8-5.19c-.1-2.629,1.689-5.141,1.236-7.732-.479-2.743-3.349-4.719-3.457-7.5-.061-1.559.779-3.009.988-4.555a5.831,5.831,0,0,0-2.812-5.7,5.83,5.83,0,0,0-1.844,6.08c.458,1.491,1.524,2.785,1.719,4.332.348,2.763-2.16,5.181-2.185,7.966-.023,2.63,2.153,4.816,2.483,7.426.231,1.829-.468,3.628-.925,5.414s-.624,3.851.5,5.316Z" transform="translate(-469.838 -374.041)" fill="url(#linear-gradient-2)"/>
          <path id="Path_5" data-name="Path 5" d="M475.194,411.57c-.349-1.811.721-3.584,1.927-4.979s2.633-2.693,3.241-4.434c.868-2.483-.1-5.41,1.088-7.754,1.264-2.482,4.587-3.528,5.507-6.156.516-1.472.138-3.1.393-4.644a5.832,5.832,0,0,1,4.362-4.62,5.831,5.831,0,0,1-.023,6.353c-.876,1.291-2.274,2.214-2.915,3.636-1.144,2.539.544,5.587-.251,8.256-.75,2.52-3.472,3.971-4.554,6.369-.758,1.681-.618,3.6-.706,5.447s-.535,3.865-2.035,4.936Z" transform="translate(-472.28 -376.323)" fill="url(#linear-gradient-3)"/>
        </g>
        <g id="Group_2" data-name="Group 2" transform="translate(0 21.058)">
          <path id="Path_6" data-name="Path 6" d="M535.122,436.8H469.055v-9.977a27.766,27.766,0,0,0,8.2-3.645c4.5-2.834,8.589-6.4,13.484-8.482s11.07-2.347,15.085,1.142c2,1.737,3.232,4.191,5.054,6.116,2.5,2.64,5.957,4.132,9.382,5.352s6.971,2.26,10.018,4.243A13.674,13.674,0,0,1,535.122,436.8Z" transform="translate(-469.055 -413.168)" fill="url(#linear-gradient-4)"/>
        </g>
      </g>
      <g id="Group_6" data-name="Group 6" transform="translate(59.846 181.496)">
        <g id="Group_4" data-name="Group 4" transform="translate(0.856)">
          <path id="Path_7" data-name="Path 7" d="M284.483,420.4c-.466-1.506-1.988-2.415-3.458-2.983a12.657,12.657,0,0,1-4.232-2.041c-1.654-1.524-2.1-4.125-3.943-5.414-1.953-1.365-4.881-.816-6.634-2.429-.982-.9-1.355-2.288-2.166-3.347a4.987,4.987,0,0,0-5.152-1.731,4.987,4.987,0,0,0,2.575,4.786c1.181.622,2.608.756,3.664,1.571,1.885,1.456,1.839,4.436,3.513,6.131,1.581,1.6,4.22,1.6,6,2.973a12.655,12.655,0,0,1,2.725,3.827c.808,1.355,1.96,2.7,3.523,2.906Z" transform="translate(-258.875 -391.184)" fill="url(#linear-gradient-5)"/>
          <path id="Path_8" data-name="Path 8" d="M298.707,412.445c-.74-1.393-.311-3.112.325-4.556a12.653,12.653,0,0,0,1.537-4.439c.086-2.249-1.445-4.4-1.058-6.614.41-2.347,2.864-4.036,2.957-6.417.052-1.333-.667-2.574-.846-3.9a4.989,4.989,0,0,1,2.406-4.873,4.988,4.988,0,0,1,1.577,5.2c-.392,1.275-1.3,2.382-1.471,3.705-.3,2.363,1.848,4.432,1.869,6.814.019,2.25-1.842,4.12-2.124,6.352a12.648,12.648,0,0,0,.791,4.631c.391,1.528.533,3.294-.424,4.547Z" transform="translate(-277.09 -381.65)" fill="url(#linear-gradient-6)"/>
          <path id="Path_9" data-name="Path 9" d="M295.163,413.752c.3-1.548-.617-3.066-1.648-4.259a12.643,12.643,0,0,1-2.773-3.793c-.743-2.124.09-4.627-.931-6.633-1.081-2.123-3.923-3.017-4.711-5.265-.441-1.259-.118-2.657-.336-3.973a4.987,4.987,0,0,0-3.73-3.951,4.985,4.985,0,0,0,.019,5.434c.749,1.1,1.946,1.894,2.493,3.111.978,2.172-.465,4.779.214,7.062.642,2.156,2.971,3.4,3.9,5.448a12.662,12.662,0,0,1,.6,4.659c.075,1.575.457,3.306,1.741,4.222Z" transform="translate(-268.741 -383.602)" fill="url(#linear-gradient-7)"/>
        </g>
        <g id="Group_5" data-name="Group 5" transform="translate(0 24.506)">
          <path id="Path_10" data-name="Path 10" d="M296.187,427.184v16.189h-38.9a8.489,8.489,0,0,1,3.487-3.622c2.647-1.44,5.942-1.393,8.486-3.007,2.124-1.349,3.459-3.7,5.582-5.053,2.083-1.329,4.676-1.547,7.149-1.531a28.528,28.528,0,0,0,7.381-.4c1.964-.512,3.746-1.558,5.66-2.23A11.655,11.655,0,0,1,296.187,427.184Z" transform="translate(-257.284 -427.184)" fill="url(#linear-gradient-8)"/>
        </g>
      </g>
      <g id="Group_8" data-name="Group 8" transform="translate(88.284 36.743)">
        <g id="Group_7" data-name="Group 7">
          <rect id="Rectangle_2" data-name="Rectangle 2" width="89.937" height="179.118" rx="15.623" transform="translate(3.104 3.104)" fill="#dad2e9"/>
          <path id="Path_11" data-name="Path 11" d="M394.757,298.015H321.635A11.525,11.525,0,0,1,310.124,286.5V124.2a11.525,11.525,0,0,1,11.511-11.512h73.121A11.525,11.525,0,0,1,406.268,124.2V286.5A11.525,11.525,0,0,1,394.757,298.015ZM321.635,118.9a5.31,5.31,0,0,0-5.3,5.3V286.5a5.311,5.311,0,0,0,5.3,5.3h73.121a5.311,5.311,0,0,0,5.3-5.3V124.2a5.31,5.31,0,0,0-5.3-5.3Z" transform="translate(-310.124 -112.69)" fill="#453c69"/>
          <path id="Rectangle_3" data-name="Rectangle 3" d="M0,0H44.4a0,0,0,0,1,0,0V.412a6.71,6.71,0,0,1-6.71,6.71H6.71A6.71,6.71,0,0,1,0,.412V0A0,0,0,0,1,0,0Z" transform="translate(25.871 6.208)" fill="#453c69"/>
        </g>
        <rect id="Rectangle_4" data-name="Rectangle 4" width="83.73" height="114.628" transform="translate(6.207 31.113)" fill="#fff"/>
        <path id="Path_12" data-name="Path 12" d="M341.851,213.476l3.005.437a.934.934,0,0,1,.518,1.594l-2.175,2.119a.935.935,0,0,0-.269.827l.513,2.993a.934.934,0,0,1-1.356.985l-2.688-1.413a.934.934,0,0,0-.87,0l-2.688,1.413a.934.934,0,0,1-1.356-.985l.514-2.993a.936.936,0,0,0-.269-.827l-2.174-2.119a.934.934,0,0,1,.518-1.594l3.005-.437a.936.936,0,0,0,.7-.511l1.344-2.723a.935.935,0,0,1,1.676,0l1.344,2.723a.935.935,0,0,0,.7.511" transform="translate(-320.353 -157.499)" fill="#f5b645"/>
        <path id="Path_13" data-name="Path 13" d="M367.1,210.241l1.344,2.723a.937.937,0,0,0,.7.511l3.005.437a.934.934,0,0,1,.518,1.594l-2.175,2.119a.934.934,0,0,0-.269.827l.513,2.993a.934.934,0,0,1-1.356.985l-2.688-1.413a.933.933,0,0,0-.869,0l-2.688,1.413a.934.934,0,0,1-1.356-.985l.513-2.993a.934.934,0,0,0-.269-.827l-2.174-2.119a.934.934,0,0,1,.518-1.594l3.005-.437a.936.936,0,0,0,.7-.511l1.344-2.723A.934.934,0,0,1,367.1,210.241Z" transform="translate(-332.96 -157.499)" fill="#f5b645"/>
        <path id="Path_14" data-name="Path 14" d="M394.4,210.241l1.344,2.723a.936.936,0,0,0,.7.511l3.005.437a.934.934,0,0,1,.518,1.594l-2.174,2.119a.934.934,0,0,0-.269.827l.513,2.993a.934.934,0,0,1-1.356.985L394,221.018a.933.933,0,0,0-.869,0l-2.688,1.413a.934.934,0,0,1-1.356-.985l.513-2.993a.934.934,0,0,0-.269-.827l-2.175-2.119a.934.934,0,0,1,.518-1.594l3-.437a.936.936,0,0,0,.7-.511l1.344-2.723A.934.934,0,0,1,394.4,210.241Z" transform="translate(-345.567 -157.499)" fill="#f5b645"/>
        <path id="Path_15" data-name="Path 15" d="M421.7,210.241l1.344,2.723a.937.937,0,0,0,.7.511l3.005.437a.934.934,0,0,1,.518,1.594l-2.174,2.119a.936.936,0,0,0-.269.827l.513,2.993a.934.934,0,0,1-1.355.985l-2.688-1.413a.934.934,0,0,0-.87,0l-2.688,1.413a.934.934,0,0,1-1.356-.985l.513-2.993a.934.934,0,0,0-.269-.827l-2.175-2.119a.934.934,0,0,1,.518-1.594l3.005-.437a.935.935,0,0,0,.7-.511l1.344-2.723A.934.934,0,0,1,421.7,210.241Z" transform="translate(-358.173 -157.499)" fill="#f5b645"/>
        <path id="Path_16" data-name="Path 16" d="M449,210.241l1.344,2.723a.936.936,0,0,0,.7.511l3.005.437a.934.934,0,0,1,.518,1.594l-2.174,2.119a.935.935,0,0,0-.269.827l.513,2.993a.934.934,0,0,1-1.356.985l-2.688-1.413a.934.934,0,0,0-.87,0l-2.688,1.413a.934.934,0,0,1-1.356-.985l.513-2.993a.936.936,0,0,0-.269-.827l-2.175-2.119a.934.934,0,0,1,.518-1.594l3.005-.437a.935.935,0,0,0,.7-.511l1.344-2.723A.935.935,0,0,1,449,210.241Z" transform="translate(-370.78 -157.499)" fill="#dededf"/>
        <rect id="Rectangle_5" data-name="Rectangle 5" width="27.275" height="4.747" transform="translate(11.921 41.135)" fill="#ebe7f7"/>
        <rect id="Rectangle_6" data-name="Rectangle 6" width="51.925" height="13.408" rx="6.299" transform="translate(23.554 153.518)" fill="#b5aad1"/>
      </g>
      <g id="Group_10" data-name="Group 10" transform="translate(0 155.585)">
        <path id="Path_17" data-name="Path 17" d="M256.552,381.815l-.051-.071a1.146,1.146,0,0,1-1.133,1.436l-2.737-.066.338.463,2.627.063A1.15,1.15,0,0,0,256.552,381.815Z" transform="translate(-195.289 -355.783)" fill="#f1a142"/>
        <path id="Path_18" data-name="Path 18" d="M247.077,363.7l-3.553,1.16a1.15,1.15,0,0,1-1.055-.179l-2.97-2.269a1.15,1.15,0,0,0-1.848.915l0,2.72,2.121,1.62a1.148,1.148,0,0,0,1.055.179l3.553-1.16a1.149,1.149,0,0,1,1.441,1.474l-1.239,3.525a1.148,1.148,0,0,0,.155,1.059l.971,1.333,2.737.066a1.146,1.146,0,0,0,1.133-1.436l-2.15-2.949a1.147,1.147,0,0,1-.175-.388l-.053-.073a1.15,1.15,0,0,1-.156-1.059l1.24-3.525a.814.814,0,0,0-1.213-1.014Z" transform="translate(-188.372 -346.745)" fill="#f5b645"/>
        <path id="Path_19" data-name="Path 19" d="M241.252,375.01l1.239-3.525a1.149,1.149,0,0,0-1.441-1.474l-3.553,1.16a1.148,1.148,0,0,1-1.055-.179l-2.121-1.62,0,1.017a1.15,1.15,0,0,1-.5.948l-2.2,1.517v.523a1.15,1.15,0,0,1-.5.948l-.7.486a1.135,1.135,0,0,0,.392.229l3.556,1.15a1.148,1.148,0,0,1,.748.765l.026.087a1.146,1.146,0,0,1,.2.374l1.044,3.5a1.145,1.145,0,0,0,1.829-.032l2.192-3.026a1.148,1.148,0,0,1,.959-.475l1,.024-.971-1.333A1.148,1.148,0,0,1,241.252,375.01Z" transform="translate(-185.037 -350.069)" fill="#f2a643"/>
        <path id="Path_20" data-name="Path 20" d="M246.5,384.247a1.148,1.148,0,0,0-.959.475l-2.192,3.026a1.145,1.145,0,0,1-1.829.032l.025.083a1.139,1.139,0,0,0,1.165.814l.368-.508a1.145,1.145,0,0,1,.866-.466l1.826-2.521a1.148,1.148,0,0,1,.959-.475l1.109.027-.338-.463Z" transform="translate(-190.159 -356.939)" fill="#ee9241"/>
        <path id="Path_21" data-name="Path 21" d="M219.7,371.74l.426,3.713a1.15,1.15,0,0,0,.6.884l3.3,1.753a1.15,1.15,0,0,1-.062,2.061l-3.4,1.552a1.151,1.151,0,0,0-.655.847l-.648,3.68a1.15,1.15,0,0,1-1.979.578l-2.527-2.753a1.149,1.149,0,0,0-1.007-.361l-3.7.521a1.15,1.15,0,0,1-1.161-1.7l1.837-3.254a1.149,1.149,0,0,0,.032-1.069l-1.639-3.359a1.149,1.149,0,0,1,1.262-1.631l3.662.742a1.15,1.15,0,0,0,1.027-.3l2.688-2.6A1.15,1.15,0,0,1,219.7,371.74Z" transform="translate(-175.021 -350.692)" fill="#f1a142"/>
        <path id="Path_22" data-name="Path 22" d="M230.188,379.249a1.168,1.168,0,0,0,.05.177l.081-.055A1.137,1.137,0,0,1,230.188,379.249Z" transform="translate(-184.925 -354.631)" fill="#f1a142"/>
        <path id="Path_23" data-name="Path 23" d="M256.3,366.353l-1.24,3.525a1.15,1.15,0,0,0,.156,1.059l.053.073a1.14,1.14,0,0,1,.019-.671l1.24-3.526a1.123,1.123,0,0,0-.191-1.089A1.13,1.13,0,0,1,256.3,366.353Z" transform="translate(-196.38 -348.385)" fill="#f1a142"/>
        <path id="Path_24" data-name="Path 24" d="M230.406,375.916l.878-.607v-.618l-1.106.764a1.149,1.149,0,0,0-.223,1.689A1.13,1.13,0,0,1,230.406,375.916Z" transform="translate(-184.692 -352.526)" fill="#f5b645"/>
        <path id="Path_25" data-name="Path 25" d="M237.456,362.932a1.15,1.15,0,0,1,1.848-.915l2.97,2.268a1.15,1.15,0,0,0,1.055.179l3.553-1.16a1.13,1.13,0,0,1,1.251.385,1.149,1.149,0,0,0-1.479-.846L243.1,364a1.15,1.15,0,0,1-1.055-.179l-2.97-2.268a1.15,1.15,0,0,0-1.848.915l0,3.006.228.174Z" transform="translate(-188.176 -346.35)" fill="#f5b645"/>
        <path id="Path_26" data-name="Path 26" d="M257.827,378.881a1.129,1.129,0,0,0-.177-.39l-2.148-2.947a1.148,1.148,0,0,0,.175.388Z" transform="translate(-196.615 -352.92)" fill="#f5b645"/>
        <path id="Path_27" data-name="Path 27" d="M230.991,377.31a1.151,1.151,0,0,0,.5-.948v-.523l-.878.607a.752.752,0,0,0-.321,1.35Z" transform="translate(-184.893 -353.056)" fill="#f5b645"/>
        <path id="Path_28" data-name="Path 28" d="M233.963,385.708l-.025-.083a1.126,1.126,0,0,1-.2-.378l-1.044-3.494a1.138,1.138,0,0,0-.545-.391l-3.556-1.15a1.13,1.13,0,0,1-.7-.635L225.6,381.16a1.149,1.149,0,0,0,.3,2.04l3.556,1.15a1.15,1.15,0,0,1,.748.765l1.069,3.581a1.15,1.15,0,0,0,2.033.345l1.824-2.519A1.139,1.139,0,0,1,233.963,385.708Z" transform="translate(-182.577 -354.783)" fill="#f5b645"/>
        <path id="Path_29" data-name="Path 29" d="M230.982,380.165l3.556,1.15a1.138,1.138,0,0,1,.545.391l-.026-.087a1.149,1.149,0,0,0-.748-.765l-3.556-1.15a1.136,1.136,0,0,1-.392-.229l-.081.055A1.129,1.129,0,0,0,230.982,380.165Z" transform="translate(-184.968 -354.735)" fill="#f5b645"/>
        <path id="Path_30" data-name="Path 30" d="M234.855,371.186a1.15,1.15,0,0,0,.5-.948l0-1.017-.228-.174v.73a1.15,1.15,0,0,1-.5.948l-1.969,1.359v.618Z" transform="translate(-186.066 -349.919)" fill="#f5b645"/>
        <path id="Path_31" data-name="Path 31" d="M218.763,380.818l-3.556-1.149a1.15,1.15,0,0,1-.3-2.04l3.075-2.123a1.149,1.149,0,0,0,.5-.948l-.006-3.737a1.125,1.125,0,0,1,.559-.978,1.122,1.122,0,0,0-.948.307l-2.687,2.6a1.149,1.149,0,0,1-1.027.3l-3.662-.742a1.149,1.149,0,0,0-1.262,1.631l1.639,3.359a1.148,1.148,0,0,1-.032,1.069l-1.837,3.254a1.15,1.15,0,0,0,1.161,1.7l3.7-.521a1.149,1.149,0,0,1,1.007.361l2.527,2.753a1.15,1.15,0,0,0,1.979-.578l.386-2.192-.466-1.561A1.151,1.151,0,0,0,218.763,380.818Z" transform="translate(-175.17 -350.282)" fill="#f5b645"/>
        <path id="Path_32" data-name="Path 32" d="M225.481,380.819l3.4-1.552a1.15,1.15,0,0,0,.062-2.061l-3.3-1.753a1.151,1.151,0,0,1-.6-.884l-.426-3.712a1.138,1.138,0,0,0-.994-1,1.125,1.125,0,0,0-.559.978l.006,3.737a1.149,1.149,0,0,1-.5.948l-3.075,2.123a1.15,1.15,0,0,0,.3,2.04l3.556,1.149a1.151,1.151,0,0,1,.748.765l.466,1.561.262-1.488A1.149,1.149,0,0,1,225.481,380.819Z" transform="translate(-179.758 -350.291)" fill="#f2a643"/>
        <path id="Path_33" data-name="Path 33" d="M229.295,370.62l2.97,2.268a1.149,1.149,0,0,0,1.055.179l3.552-1.16a1.15,1.15,0,0,1,1.442,1.474l-1.24,3.525a1.15,1.15,0,0,0,.156,1.059l2.2,3.02a1.15,1.15,0,0,1-.956,1.827l-3.736-.09a1.149,1.149,0,0,0-.959.475l-2.192,3.027a1.15,1.15,0,0,1-2.033-.346l-1.069-3.581a1.151,1.151,0,0,0-.748-.765l-3.556-1.149a1.15,1.15,0,0,1-.3-2.04l3.075-2.123a1.15,1.15,0,0,0,.5-.948l-.006-3.737A1.15,1.15,0,0,1,229.295,370.62Z" transform="translate(-181.784 -350.536)" fill="#f1a142"/>
        <path id="Path_34" data-name="Path 34" d="M228.871,369.764l2.97,2.269a1.15,1.15,0,0,0,1.055.18l3.552-1.16a1.15,1.15,0,0,1,1.442,1.474l-1.24,3.525a1.151,1.151,0,0,0,.156,1.059l2.2,3.02a1.15,1.15,0,0,1-.957,1.827l-3.736-.09a1.151,1.151,0,0,0-.959.475l-2.192,3.027a1.15,1.15,0,0,1-2.033-.345l-1.069-3.581a1.151,1.151,0,0,0-.748-.765l-3.556-1.149a1.15,1.15,0,0,1-.3-2.04l3.075-2.123a1.149,1.149,0,0,0,.5-.948l-.006-3.737A1.15,1.15,0,0,1,228.871,369.764Z" transform="translate(-181.587 -350.141)" fill="#f5b645"/>
        <path id="Path_35" data-name="Path 35" d="M244.1,391.136l-.368.508a1.123,1.123,0,0,0,.868-.469l.366-.505A1.145,1.145,0,0,0,244.1,391.136Z" transform="translate(-191.179 -359.905)" fill="#f1a142"/>
        <path id="Path_36" data-name="Path 36" d="M239.2,383.619l1.044,3.494a1.123,1.123,0,0,0,.2.378l-1.044-3.5A1.148,1.148,0,0,0,239.2,383.619Z" transform="translate(-189.089 -356.649)" fill="#f5b645"/>
        <g id="Group_9" data-name="Group 9">
          <rect id="Rectangle_7" data-name="Rectangle 7" width="1.866" height="9.84" transform="translate(59.632 53.319)" fill="#3f2f6d"/>
          <rect id="Rectangle_8" data-name="Rectangle 8" width="25.912" height="27.619" transform="translate(33.721 30.024)" fill="url(#linear-gradient-9)"/>
          <rect id="Rectangle_9" data-name="Rectangle 9" width="6.671" height="1.722" transform="translate(27.87 30.024)" fill="#ef599e"/>
          <path id="Path_37" data-name="Path 37" d="M164.11,407.669l-.181,1.633a87.5,87.5,0,0,1-6.974-10.222Q160.723,403.211,164.11,407.669Z" transform="translate(-151.106 -363.789)" fill="#3f3574"/>
          <path id="Path_38" data-name="Path 38" d="M161.621,346.664a2.206,2.206,0,0,1-2.023-.242,2.044,2.044,0,0,1-.859-1.828,1.918,1.918,0,0,1,1.211-1.6,3.471,3.471,0,0,1,2.165.133,15.619,15.619,0,0,0,.58,1.538l.27.641A2.358,2.358,0,0,1,161.621,346.664Z" transform="translate(-151.926 -337.828)" fill="#3f2f6d"/>
          <path id="Path_39" data-name="Path 39" d="M164.813,338.8a4.328,4.328,0,0,1-.157-2.208,4.118,4.118,0,0,1,2.707-2.778,4.638,4.638,0,0,1,3.019-.1,3.442,3.442,0,0,1,2.08,1.856l-.042.019a1.436,1.436,0,0,1-1.439,1.4,2.53,2.53,0,0,1-1.7,1.519c-.209.057-.466.114-.537.318a1.034,1.034,0,0,0-.033.271.244.244,0,0,1-.143.223.257.257,0,0,1-.251-.114,1.517,1.517,0,0,0-.147-.166l.01-.015a.933.933,0,0,0-.727-.408.778.778,0,0,0-.626.361.836.836,0,0,0-.123.693.891.891,0,0,0,.517.574.992.992,0,0,0,.5.072,4.155,4.155,0,0,1-1.552,1.51c-.015.071-.033.143-.052.214-.147-.356-.294-.707-.447-1.059l-.27-.641A15.617,15.617,0,0,1,164.813,338.8Z" transform="translate(-154.625 -333.507)" fill="#3f2f6d"/>
          <path id="Path_40" data-name="Path 40" d="M168.4,342.013a.891.891,0,0,1-.517-.574.836.836,0,0,1,.123-.693.778.778,0,0,1,.626-.361.934.934,0,0,1,.727.408l-.01.015a1.534,1.534,0,0,1,.147.166.257.257,0,0,0,.251.114.243.243,0,0,0,.143-.223,1.033,1.033,0,0,1,.033-.271c.071-.2.328-.261.537-.318a2.53,2.53,0,0,0,1.7-1.519,1.435,1.435,0,0,0,1.439-1.4l.043-.019c.024.067.047.128.071.195a5,5,0,0,1,.323,1.828,2.854,2.854,0,0,0,.447,1.747,4.457,4.457,0,0,1,.342.389.47.47,0,0,1,.038.489c-.147.228-.5.175-.736.308a.9.9,0,0,0-.365.665,6.654,6.654,0,0,0-.067.688h-.029a1.594,1.594,0,0,1-.883,1.068,2.847,2.847,0,0,1-1.405.242,1,1,0,0,0-.56.067.9.9,0,0,0-.318.446c-.062.147-.142.351-.233.579a13.394,13.394,0,0,0-3.129-1.619c.057-.209.1-.413.152-.622.019-.071.038-.143.052-.214a4.154,4.154,0,0,0,1.552-1.51A.992.992,0,0,1,168.4,342.013Z" transform="translate(-155.811 -335.276)" fill="#f5ba95"/>
          <path id="Path_41" data-name="Path 41" d="M184.695,445.392a70.159,70.159,0,0,1-3.162-6.918c1.69-.209,3.376-.48,5.042-.816.541,1.871,1.088,3.741,1.69,5.631.605,1.4.771,2.288,2.432,2.606a4.736,4.736,0,0,1,1.054.266,1.128,1.128,0,0,1,.679.793.669.669,0,0,1-.494.745s0,0,0,0c-2.673.061-3.411-.062-6.083,0a1.741,1.741,0,0,1-.831-.119,1.159,1.159,0,0,1-.56-1,3.4,3.4,0,0,1,.228-1.182Z" transform="translate(-162.456 -381.604)" fill="#3f2f6d"/>
          <path id="Path_42" data-name="Path 42" d="M151.162,446.255l-5.075-4.52a1.114,1.114,0,0,1,.313-.66,5.5,5.5,0,0,1,.589-.518,6.519,6.519,0,0,0,1.78-2.758c.518-1.439.974-2.892,1.425-4.349q2.357,1.14,4.781,2.113-1.787,3.1-3.708,6.115c.166.261.347,2.481.833,2.832a2.96,2.96,0,0,1,.834.2.8.8,0,0,1-.309,1.54Z" transform="translate(-146.087 -379.661)" fill="#3f2f6d"/>
          <path id="Path_43" data-name="Path 43" d="M155.783,410.247c-.408-4.691-1.187-9-1.581-13.707.423.451.845.907,1.258,1.368a87.5,87.5,0,0,0,6.974,10.222L162,412.151q-1.681,3.219-3.5,6.367-2.428-.976-4.781-2.113C154.363,414.34,155,412.269,155.783,410.247Z" transform="translate(-149.611 -362.616)" fill="#7a5da2"/>
          <path id="Path_44" data-name="Path 44" d="M153.969,390.185c-1.159-2.16-.351-4.857-.157-6.6q4.693.662,9.391,1.329c.01.389.01.793.015,1.2,2.568,6.082,4.828,10.578,7.4,16.66,1.092,3.333,2,6.619,2.948,9.914-1.666.337-3.352.608-5.042.816-1.154-2.915-2.151-5.892-3.1-8.921q-1.439-2.065-2.977-4.069-3.383-4.451-7.155-8.589c-.413-.461-.835-.917-1.258-1.367-.014-.124-.024-.247-.033-.375Z" transform="translate(-149.444 -356.631)" fill="#7a5da2"/>
          <path id="Path_45" data-name="Path 45" d="M171.642,370.069l-.124.128a7.953,7.953,0,0,1-.84.513,11.892,11.892,0,0,1-3.684-5.417C168.48,366.945,170.047,368.522,171.642,370.069Z" transform="translate(-155.742 -348.186)" fill="#ed8922"/>
          <path id="Path_46" data-name="Path 46" d="M194.443,385.571s0,0,0,0c.5-.014,1.006-.024,1.51-.033a1.181,1.181,0,0,1,1.31.774c.418.684.831,1.363,1.244,2.046a1.065,1.065,0,0,1-1.054.361,5.442,5.442,0,0,0-1.225-.148,4.943,4.943,0,0,1-1.1.2,9.726,9.726,0,0,1-1.5-.309s0,0,0,0a50.4,50.4,0,0,1-4.164-3.333,14.619,14.619,0,0,0,2.084-2.25C192.592,383.886,193.617,384.826,194.443,385.571Z" transform="translate(-166.118 -356.309)" fill="#f5ba95"/>
          <path id="Path_47" data-name="Path 47" d="M187.472,379.1c.656.679,1.358,1.372,2.051,2.037a14.62,14.62,0,0,1-2.084,2.25c-.807-.707-1.6-1.429-2.359-2.141Q186.275,380.17,187.472,379.1Z" transform="translate(-164.094 -354.561)" fill="#dfd8eb"/>
          <path id="Path_48" data-name="Path 48" d="M161.168,350.517a13.393,13.393,0,0,1,3.129,1.619c-.138.37-.3.8-.422,1.125a8.893,8.893,0,0,1,1.334,1.372c2.383,2.868,4.221,7.027,6.68,9.833.4.461.855.945,1.324,1.434q-1.2,1.069-2.393,2.146c-.446-.413-.888-.821-1.315-1.225-1.263-1.187-2.526-2.369-3.77-3.575-1.6-1.548-3.162-3.124-4.648-4.776a11.892,11.892,0,0,0,3.684,5.417,2.2,2.2,0,0,0-.294.2,3.1,3.1,0,0,0-.912,2.431c0,.342.015,1.619.029,3.119q-4.693-.669-9.391-1.329c0-.043.009-.09.014-.133a36.891,36.891,0,0,1,1.363-7.867c1.325-4.154,1.923-5.223,5.332-9l.043.01C161.031,351.054,161.1,350.783,161.168,350.517Z" transform="translate(-149.835 -341.362)" fill="#f0b524"/>
          <path id="Path_49" data-name="Path 49" d="M224.56,422.736a9.62,9.62,0,1,0,9.62,9.62A9.62,9.62,0,0,0,224.56,422.736Zm0,17.017a7.4,7.4,0,1,1,7.4-7.4A7.4,7.4,0,0,1,224.56,439.753Z" transform="translate(-177.884 -374.713)" fill="#3f2f6d"/>
          <path id="Path_50" data-name="Path 50" d="M255.97,447a3.09,3.09,0,1,0,3.09,3.09A3.09,3.09,0,0,0,255.97,447Z" transform="translate(-195.405 -385.92)" fill="#3f2f6d"/>
          <circle id="Ellipse_1" data-name="Ellipse 1" cx="2.136" cy="2.136" r="2.136" transform="translate(44.541 55.507)" fill="#dad2e9"/>
          <path id="Path_51" data-name="Path 51" d="M257.257,452.97a1.59,1.59,0,1,1,1.59-1.589A1.589,1.589,0,0,1,257.257,452.97Z" transform="translate(-196.692 -387.207)" fill="#fff"/>
        </g>
      </g>
      <g id="Group_11" data-name="Group 11" transform="translate(183.876 153.846)">
        <path id="Path_52" data-name="Path 52" d="M517.886,330.291a1.386,1.386,0,0,0-1.032.253,1.063,1.063,0,0,0-.415.961.862.862,0,0,0,.284.521.729.729,0,0,0,.425.213,1.027,1.027,0,0,0,1.361,1.265,1.813,1.813,0,0,0,.7,1.72l.031.04a.883.883,0,0,1,.86.02.933.933,0,0,1,.42.885,1.041,1.041,0,0,1-.577.8,1.163,1.163,0,0,1-.946.01,3.6,3.6,0,0,0-1.386,1.411,2.215,2.215,0,0,0-.131,1.72,1.685,1.685,0,0,0,.161.334,1.2,1.2,0,0,0,.673.537.753.753,0,0,0,.8-.243,1.96,1.96,0,0,0,1.4.79,2,2,0,0,0,1.012-.182,1.816,1.816,0,0,0,.506-.344,1.853,1.853,0,0,0,1.007.354.771.771,0,0,0,.769-.627,1.548,1.548,0,0,0-.147-.592,3.9,3.9,0,0,1-.015-2.18c.167-.719.42-1.412.551-2.135a3.385,3.385,0,0,0-.207-2.16l-.046.015a4.807,4.807,0,0,0-1.29-1.847,4.881,4.881,0,0,0-3.485-1.189l0-.046A8.892,8.892,0,0,1,517.886,330.291Z" transform="translate(-500.989 -330.276)" fill="#ed8922"/>
        <path id="Path_53" data-name="Path 53" d="M516.19,334.8a1.04,1.04,0,0,1-.278-1.062.729.729,0,0,1-.425-.213c-.147.339-.243.7-.369,1.058a2.084,2.084,0,0,1-.809,1.123c-.217.122-.5.218-.546.461a.444.444,0,0,0,.152.395,1.394,1.394,0,0,0,.349.2c-.076.445-.228.875-.339,1.31a3.365,3.365,0,0,0-.121,1.432,1.5,1.5,0,0,0,.8,1.138c.293.132.632.137.916.293a1.289,1.289,0,0,1,.566.734l.157-.055a2.216,2.216,0,0,1,.131-1.72,3.606,3.606,0,0,1,1.386-1.411,1.162,1.162,0,0,0,.946-.01,1.041,1.041,0,0,0,.577-.8.933.933,0,0,0-.42-.885.883.883,0,0,0-.86-.02l-.031-.04a1.813,1.813,0,0,1-.7-1.72A1.049,1.049,0,0,1,516.19,334.8Z" transform="translate(-499.754 -331.777)" fill="#f5b691"/>
        <path id="Path_54" data-name="Path 54" d="M517.589,348.891a1.693,1.693,0,0,1-.162-.334l-.157.055c.01.046.025.086.036.132a3.74,3.74,0,0,1,.056.951q-.524.129-1.047.273a2.131,2.131,0,0,0,1.487,1.289,9.885,9.885,0,0,0,2.125.253,4.827,4.827,0,0,0,1.6,0,1.4,1.4,0,0,0,.967-.794,3.142,3.142,0,0,1-1.017-.926,2,2,0,0,1-1.012.182,1.959,1.959,0,0,1-1.4-.789.753.753,0,0,1-.8.243A1.2,1.2,0,0,1,517.589,348.891Z" transform="translate(-500.936 -338.718)" fill="#f5b691"/>
        <path id="Path_55" data-name="Path 55" d="M500.781,363.456a9.818,9.818,0,0,1-1.928-4.108c-.354.314-.7.627-1.057.946-.395.349-.789.7-1.184,1.058s-.784.7-1.173,1.047-.8.718-1.2,1.077l-.84-.142c-.01.071-.025.137-.035.2a2.28,2.28,0,0,0,.2,1.821,2.065,2.065,0,0,0,2.074.4A15.8,15.8,0,0,0,500.781,363.456Z" transform="translate(-490.294 -343.702)" fill="#f5b691"/>
        <path id="Path_56" data-name="Path 56" d="M517.04,452.183l6.713-.2v-.036c.683-.425.091-.809.091-1.811.07-1.75.106-3.5.121-5.246h-3.551q.174,2.511.238,5.028a3.315,3.315,0,0,1-.941.481,13.257,13.257,0,0,1-2.094.385,2.085,2.085,0,0,0-.814.263.778.778,0,0,0-.379.719A.494.494,0,0,0,517.04,452.183Z" transform="translate(-500.983 -383.207)" fill="#3f2f6d"/>
        <path id="Path_57" data-name="Path 57" d="M526.521,425.549h-4.548c.41,3.47.774,6.941,1.007,10.411h3.551C526.572,432.485,526.526,429.019,526.521,425.549Z" transform="translate(-503.549 -374.274)" fill="#f5b691"/>
        <path id="Path_58" data-name="Path 58" d="M500.2,449.2a2.7,2.7,0,0,1-1.553,1.158,13.161,13.161,0,0,1-2.094.385,2.03,2.03,0,0,0-.809.263.782.782,0,0,0-.385.718.5.5,0,0,0,.622.415l7.34-.213c.329-.466.1-.829.349-1.832q.554-2.648,1.052-5.3h-4.189C500.408,446.459,500.3,447.951,500.2,449.2Z" transform="translate(-491.256 -383.159)" fill="#3f2f6d"/>
        <path id="Path_59" data-name="Path 59" d="M508.536,366.672a8.486,8.486,0,0,0,.971-1.937c-.4.283-.809.561-1.219.829a4.343,4.343,0,0,0,.091.622A3.842,3.842,0,0,0,508.536,366.672Z" transform="translate(-497.229 -346.189)" fill="#962a79"/>
        <path id="Path_60" data-name="Path 60" d="M494.064,355.054c-.2,1.052-.4,2.1-.562,3.04l.84.142c.4-.36.8-.719,1.2-1.077a3.717,3.717,0,0,1,1.219-1.73c.01-.126.02-.248.025-.375q.1-1.411.192-2.823a4.611,4.611,0,0,0,.637-1.224,2.48,2.48,0,0,0-.233-1.624,4.3,4.3,0,0,0-.071-.986c-.03-.177-.126-.4-.308-.4a.322.322,0,0,0-.263.213c-.045.111-.061.233-.111.339a1.012,1.012,0,0,1-.713.506,4.061,4.061,0,0,0-.865.253,1.544,1.544,0,0,0-.718,1.315,4.33,4.33,0,0,0,.278,1.467C494.448,353.021,494.256,354.043,494.064,355.054Z" transform="translate(-490.401 -338.462)" fill="#f5b691"/>
        <path id="Path_61" data-name="Path 61" d="M521.644,422.823c.061.491.122.976.177,1.467h4.548c0-.486,0-.976,0-1.467Z" transform="translate(-503.397 -373.015)" fill="#f3a18a"/>
        <path id="Path_62" data-name="Path 62" d="M504.979,435.856h4.189q.978-5.13,1.76-10.3-2.6-.053-5.186-.111C505.46,429.229,505.2,432.836,504.979,435.856Z" transform="translate(-495.701 -374.226)" fill="#f5b691"/>
        <path id="Path_63" data-name="Path 63" d="M506.4,424.234q2.588.061,5.185.111c.086-.506.162-1.012.232-1.523h-5.307C506.469,423.3,506.434,423.769,506.4,424.234Z" transform="translate(-496.356 -373.015)" fill="#f3a18a"/>
        <path id="Path_64" data-name="Path 64" d="M514.7,399.908h5.651c.187-.015.829-.031,1.548-.046-.364-3.764-.546-7.168-.89-10.805-.324-3.44.1-6.688-.557-10.37-.223-1.26-.815-2.1-.824-4.012.025-.491.066-.976.116-1.462-3.658-.076-7.4.3-11.064.253a11.829,11.829,0,0,1,.03,3.192h.005c-.693,5.2-1.457,14.554-2.11,23.251H514.7Z" transform="translate(-496.452 -350.099)" fill="#7a5da2"/>
        <path id="Path_65" data-name="Path 65" d="M497.3,363.531c.389-.349.784-.7,1.173-1.047.015-.228.036-.455.046-.683A3.716,3.716,0,0,0,497.3,363.531Z" transform="translate(-492.155 -344.834)" fill="#f3a18a"/>
        <path id="Path_66" data-name="Path 66" d="M502.013,348.674a1.568,1.568,0,0,1,.44,1.032c.046.551.091,1.1.137,1.634.526.374,1.052.753,1.579,1.133.6-.541,2.05-.744,2.718-1.195-1.056-.713-2.769-1.5-3.421-2.386a5.539,5.539,0,0,0-.592-.815,2.046,2.046,0,0,0-.591-.374c-.107-.056-.218-.1-.329-.147a.533.533,0,0,0-.314-.066.324.324,0,0,0-.233.248.5.5,0,0,0,.056.349A2.863,2.863,0,0,0,502.013,348.674Z" transform="translate(-494.045 -338.223)" fill="#f5b691"/>
        <path id="Path_67" data-name="Path 67" d="M507.362,358.475a8.485,8.485,0,0,1-.971,1.938c.152.41.349.809.5,1.219a9.042,9.042,0,0,1,.42,1.664c3.668.046,7.406-.329,11.064-.253a44.735,44.735,0,0,1,.966-5.954c.268-1.164.561-2.484-.111-3.475a5.951,5.951,0,0,0-2.408-1.578,1.68,1.68,0,0,1-.182-.106,1.4,1.4,0,0,1-.967.794,4.83,4.83,0,0,1-1.6,0,9.891,9.891,0,0,1-2.125-.253,2.13,2.13,0,0,1-1.487-1.289,11.619,11.619,0,0,0-2.848,1.128c-.177.106-.354.217-.526.339a17.623,17.623,0,0,0-1.882,1.533c-.025.021-.051.046-.076.066l-1.29,1.153c-.066.055-.132.116-.2.177a9.818,9.818,0,0,0,1.928,4.108c.192-.126.384-.248.572-.379C506.553,359.036,506.958,358.758,507.362,358.475Z" transform="translate(-495.085 -339.93)" fill="url(#linear-gradient-9)"/>
        <path id="Path_68" data-name="Path 68" d="M494.11,355.313c-.167.926-.359,1.948-.552,2.959h-1.15l1.6-3.3C494.038,355.085,494.074,355.2,494.11,355.313Z" transform="translate(-489.896 -341.68)" fill="#c2b8db"/>
        <path id="Path_69" data-name="Path 69" d="M487.74,341.836h7.952c.091.992.187,2.1.284,3.253v.005c-.107-.056-.218-.1-.329-.147a.533.533,0,0,0-.314-.066.324.324,0,0,0-.233.248.5.5,0,0,0,.056.349,2.865,2.865,0,0,0,.552.587,1.568,1.568,0,0,1,.44,1.032c.046.551.091,1.1.137,1.634.071.835.142,1.629.213,2.352-.066.055-.132.116-.2.177-.354.314-.7.627-1.057.946h-1.113q.1-1.411.192-2.823a4.606,4.606,0,0,0,.637-1.224,2.479,2.479,0,0,0-.232-1.624,4.3,4.3,0,0,0-.071-.986c-.03-.177-.127-.4-.308-.4a.322.322,0,0,0-.263.213c-.045.111-.061.233-.111.339a1.012,1.012,0,0,1-.713.506,4.058,4.058,0,0,0-.865.253,1.544,1.544,0,0,0-.718,1.315,3.538,3.538,0,0,0,.173,1.124l-1.6,3.3h-1.6C488.357,349.02,488.028,344.983,487.74,341.836Z" transform="translate(-487.74 -335.614)" fill="#e5e4f4"/>
      </g>
      <g id="Group_12" data-name="Group 12" transform="translate(132.067 153.964)">
        <path id="Path_70" data-name="Path 70" d="M402.562,368.848a.655.655,0,0,0-.186.615,1.474,1.474,0,0,0,.294.6A4.4,4.4,0,0,1,401.4,370l-.015.354a1.63,1.63,0,0,0,2.568,1.4L406,370.308a8.616,8.616,0,0,0-2.479-1.469A.972.972,0,0,0,402.562,368.848Z" transform="translate(-396.051 -348.145)" fill="#f19f42"/>
        <path id="Path_71" data-name="Path 71" d="M414.3,340.748a1.63,1.63,0,0,0-1.256-2.64l-5.3-.076a1.632,1.632,0,0,1-1.333-.725l-2.94-4.407a1.63,1.63,0,0,0-2.9.379l-1.71,5.014a1.631,1.631,0,0,1-1.1,1.043l-5.1,1.434a1.63,1.63,0,0,0-.536,2.873l4.24,3.176a1.63,1.63,0,0,1,.651,1.37l-.2,4.939a4.4,4.4,0,0,0,1.272.059,1.473,1.473,0,0,1-.294-.6.655.655,0,0,1,.186-.615.972.972,0,0,1,.961-.009,8.616,8.616,0,0,1,2.479,1.469l2.28-1.607a1.631,1.631,0,0,1,1.5-.2l4.969,1.837a1.629,1.629,0,0,0,2.122-2.01l-1.564-5.061a1.63,1.63,0,0,1,.278-1.491Z" transform="translate(-391.476 -331.269)" fill="#f5b645"/>
        <path id="Path_72" data-name="Path 72" d="M446.354,445.549c.431.7.869,1.42,1.258,2.061a40.963,40.963,0,0,1-5.137,4.238H438.06c-.054,0-.112,0-.166,0a2.493,2.493,0,0,1,1.655-1.7,4.119,4.119,0,0,0,1.238-.389,2.226,2.226,0,0,0,.67-1.026,5.909,5.909,0,0,0,.414-1.283,2.016,2.016,0,0,0-.111-1.151q1.825-1.142,3.721-2.181c.232.376.476.774.724,1.179Z" transform="translate(-412.912 -382.967)" fill="#dad2e9"/>
        <path id="Path_73" data-name="Path 73" d="M442.526,421.25q-1.893,1.036-3.721,2.181a1.243,1.243,0,0,0-.153.1c-2.1-3.443-4.917-6.5-7.156-9.83q2.818-7.593,5.625-15.189.931-1.806,1.863-3.621c.372-.1.745-.191,1.117-.29a134.854,134.854,0,0,1-3.841,14.747c2.107,3.866,4.064,7.992,6.3,11.891A.274.274,0,0,0,442.526,421.25Z" transform="translate(-409.957 -360.097)" fill="#fff"/>
        <path id="Path_74" data-name="Path 74" d="M444.99,339.516a1.032,1.032,0,0,1,.5.861,1.161,1.161,0,0,1-.426.911,1.317,1.317,0,0,1-.977.281.07.07,0,0,1-.029,0,9.555,9.555,0,0,0,.683,2.04,1.9,1.9,0,0,0-.48.385,1.569,1.569,0,0,0-.311.939l-3.038.36a2.484,2.484,0,0,0-.017-1.324c-.24-.343-.728-.38-1.085-.6a1.629,1.629,0,0,1-.65-1.308c-.029-.505.07-1.006.091-1.511a.912.912,0,0,0-.248-.786c-.132-.1-.327-.149-.4-.3a.391.391,0,0,1,.153-.443,3.562,3.562,0,0,1,.443-.24,2.322,2.322,0,0,0,.869-1.473,4.96,4.96,0,0,1,.29-.762c0,.008.012.016.017.025a1.439,1.439,0,0,0,.712.6,1.049,1.049,0,0,0,.911-.07,1.252,1.252,0,0,0,.654.7,1.21,1.21,0,0,0,.468.108,2.142,2.142,0,0,1,.351.65c.075.306-.016.629.029.944a.357.357,0,0,0,.224.319.283.283,0,0,0,.285-.12.646.646,0,0,0,.087-.186A.938.938,0,0,1,444.99,339.516Z" transform="translate(-413.229 -333.284)" fill="#f5ba95"/>
        <path id="Path_75" data-name="Path 75" d="M446.033,340.814a9.555,9.555,0,0,1-.683-2.04.07.07,0,0,0,.029,0,1.317,1.317,0,0,0,.977-.281,1.161,1.161,0,0,0,.426-.911,1.032,1.032,0,0,0-.5-.861.938.938,0,0,0-.894-.017.645.645,0,0,1-.087.186.283.283,0,0,1-.285.12.357.357,0,0,1-.224-.319c-.045-.315.046-.638-.029-.944a2.144,2.144,0,0,0-.351-.65,1.211,1.211,0,0,1-.468-.108,1.252,1.252,0,0,1-.654-.7,1.05,1.05,0,0,1-.911.071,1.439,1.439,0,0,1-.712-.6c0-.009-.012-.017-.017-.025a1.805,1.805,0,0,1-.153-1.606,1.668,1.668,0,0,1,1.271-1.018,1.009,1.009,0,0,1,.782-.608,1.861,1.861,0,0,1,1.014.153c.323.132.617.319.927.472.054.029.108.054.165.079l-.016.033c.38.2.757.41,1.138.613a7.645,7.645,0,0,1,1.581,1.034,4.2,4.2,0,0,1,1.117,4.077,5.174,5.174,0,0,1-2.45,3.108,5.875,5.875,0,0,1-.811.621C446.153,340.74,446.1,340.777,446.033,340.814Z" transform="translate(-414.52 -330.494)" fill="#3f2f6d"/>
        <path id="Path_76" data-name="Path 76" d="M426.858,393.123q-3.415,6.63-6.825,13.261-3.464,6.73-6.924,13.455l-.629-.137-3.207-.682c4.225-11.87,8.31-23.848,11.924-35.913,1.511-.058,3.025-.111,4.54-.169a33.209,33.209,0,0,0,2.231,6.763c.252-.067.5-.133.753-.2Q427.789,391.315,426.858,393.123Z" transform="translate(-399.694 -354.713)" fill="#fff"/>
        <path id="Path_77" data-name="Path 77" d="M440.989,365.892c.132-.1.269-.2.4-.311a9.4,9.4,0,0,1-2.914,3.266c-.012-.426-.02-.857-.012-1.287A26.407,26.407,0,0,0,440.989,365.892Z" transform="translate(-413.172 -346.697)" fill="#3f2f6d"/>
        <path id="Path_78" data-name="Path 78" d="M429.266,415.124q3.408-6.631,6.825-13.261-2.806,7.6-5.625,15.189C430.044,416.423,429.638,415.782,429.266,415.124Z" transform="translate(-408.928 -363.453)" fill="#7a5da2"/>
        <path id="Path_79" data-name="Path 79" d="M433.455,370.217q.894-.459,1.759-.96c-.008.431,0,.861.012,1.287a33.769,33.769,0,0,0,.741,6.076c-1.515.058-3.03.112-4.54.169Q432.569,373.543,433.455,370.217Z" transform="translate(-409.926 -348.395)" fill="#f3c72c"/>
        <path id="Path_80" data-name="Path 80" d="M403.383,449.985a0,0,0,0,0,0,0l3.207.682q-.769,1.739-1.539,3.481a81.978,81.978,0,0,1-8.526-2.26,2.493,2.493,0,0,1,1.382-1.623,3.9,3.9,0,0,1,1.826.075,7.592,7.592,0,0,0,1.817.29A3.207,3.207,0,0,0,403.383,449.985Z" transform="translate(-393.809 -385.674)" fill="#dad2e9"/>
        <path id="Path_81" data-name="Path 81" d="M405.566,371.086c.153.7.327,1.391.517,2.078l-.012,0a9.831,9.831,0,0,1-5.513-.111,1.764,1.764,0,0,1-.981-.6.48.48,0,0,1,.025-.65.633.633,0,0,1,.261-.087c1.113-.182,2.222-.368,3.336-.554l0-.008c-.211-.141-.418-.286-.629-.43-.166-.112-.352-.269-.315-.468a.358.358,0,0,1,.332-.252,1.066,1.066,0,0,1,.434.1c.849.323,1.693.646,2.541.973Z" transform="translate(-395.165 -348.742)" fill="#f5ba95"/>
        <path id="Path_82" data-name="Path 82" d="M431.719,355.09c-.4-1.759-.546-1.287-.145-3.046v-.012c-.149.021-.3.037-.452.054l-3.038.36c-.232.029-.46.054-.691.083a.8.8,0,0,0-.389.116.554.554,0,0,0-.153.6.923.923,0,0,0,.132.269,20.525,20.525,0,0,0-.732,1.953c-.674.559-1.42,1.122-2.189,1.685-1.8,1.308-3.758,2.6-5.351,3.733q-3.955.956-7.909,1.9v0c.153.7.327,1.391.517,2.078.029.116.062.231.1.348,3.2-.281,6.349-.873,9.494-1.449,1.01-.488,2.024-.973,3.021-1.5q.894-.459,1.759-.96a26.3,26.3,0,0,0,2.529-1.668c.132-.1.269-.2.4-.311a9.4,9.4,0,0,1-2.914,3.266,33.774,33.774,0,0,0,.741,6.076,33.2,33.2,0,0,0,2.231,6.763l.754-.2c.372-.095.745-.19,1.117-.289,1.08-.277,2.165-.559,3.245-.84C432.129,368.768,432.551,358.782,431.719,355.09Z" transform="translate(-400.401 -340.44)" fill="#7a5da2"/>
        <line id="Line_1" data-name="Line 1" x2="3.005" y2="0.437" transform="translate(28.305 10.335)" fill="#f5b645"/>
      </g>
      <g id="Group_13" data-name="Group 13" transform="translate(102.043)">
        <path id="Path_83" data-name="Path 83" d="M377.441,112.671c.1.555.188,1.11.285,1.665l-.047.018a.8.8,0,0,1-.039.805c-.224.242-.633.161-.934.019a3.648,3.648,0,0,1-1.842-2.083,6.059,6.059,0,0,1-.252-1.392c-.04-.494-.062-.99-.151-1.478a.494.494,0,0,0-.018-.1,15.244,15.244,0,0,0,3.162-.174,1.744,1.744,0,0,0,.119.281l0,.012c.208.4.521.757.7,1.173.007.011.014.017.016.029a2,2,0,0,1,.031,1.449c-.042.116-.112.247-.233.267-.163.032-.294-.143-.307-.308a3.206,3.206,0,0,1,.078-.483.389.389,0,0,0-.179-.415.321.321,0,0,0-.386.218A.888.888,0,0,0,377.441,112.671Z" transform="translate(-353.585 -74.684)" fill="#f5b691"/>
        <path id="Path_84" data-name="Path 84" d="M343.265,109.574a4,4,0,0,0-.153,3.465c-.374.063-.748.126-1.121.2-1.545.313-2.923,1.456-4.469,1.856-.639.168-1.506.229-1.769-.374a1.428,1.428,0,0,1,.31-1.274c.592-.926,1.176-1.857,1.766-2.789.415-.653.955-1.388,1.735-1.4a4.282,4.282,0,0,1,1.355.417A3.961,3.961,0,0,0,343.265,109.574Z" transform="translate(-335.689 -74.362)" fill="#3f3574"/>
        <path id="Path_85" data-name="Path 85" d="M356.789,95.73a1.09,1.09,0,0,0,.212-.961l.153-.055c-1.087-3.023-3.991-5.446-4.175-8.588a2.635,2.635,0,0,0,1.183.216,6.21,6.21,0,0,0,2.249-.705,5.039,5.039,0,0,0,2.324,2.456,4.511,4.511,0,0,0,.6.267c0,.091.01.184.02.274.321,3.052,2.185,7.015,3.246,10.194-.016.02-.025.046-.041.067a3.914,3.914,0,0,1-1.85,1.673,1.176,1.176,0,0,0,.141,0v.006c-3.829.985-7.8.935-11.651,1.561a4,4,0,0,1,.153-3.465c.333-.1.658-.208.977-.326q2.594-.937,5.188-1.868A2.764,2.764,0,0,0,356.789,95.73Z" transform="translate(-341.782 -63.454)" fill="#f3c72c"/>
        <path id="Path_86" data-name="Path 86" d="M369.339,71.527q-.6,2.519-1.084,5.06a19.614,19.614,0,0,0-.463,5.257,4.507,4.507,0,0,1-.6-.267A25.946,25.946,0,0,1,369.339,71.527Z" transform="translate(-350.235 -56.938)" fill="#962a79"/>
        <path id="Path_87" data-name="Path 87" d="M380.371,109.932c.018.1.042.2.066.294a1.746,1.746,0,0,1-.12-.281A.17.17,0,0,0,380.371,109.932Z" transform="translate(-356.298 -74.674)" fill="#e85b0d"/>
        <path id="Path_88" data-name="Path 88" d="M379.85,79.278a35.542,35.542,0,0,0-.043,6.868,6.47,6.47,0,0,1-.971.06A35.421,35.421,0,0,1,379.85,79.278Z" transform="translate(-355.614 -60.517)" fill="#962a79"/>
        <path id="Path_89" data-name="Path 89" d="M402.785,52.426a2.9,2.9,0,0,1,.111-.771A4.05,4.05,0,0,1,402.785,52.426Z" transform="translate(-366.674 -47.761)" fill="#e85b0d"/>
        <path id="Path_90" data-name="Path 90" d="M401.286,111.82c-.1-.406-.2-.807-.3-1.214a11.222,11.222,0,0,1-.777,3.146c-.124.3-.317.647-.645.68a.66.66,0,0,1-.621-.462,1.317,1.317,0,0,1-.06-.553l-.062,0c-.2-1.54-.434-3.076-.7-4.6,1.062-.072,2.131-.15,3.192-.233.042.3.082.637.114,1.009a14.662,14.662,0,0,1,.415,1.828.876.876,0,0,1-.026.508.3.3,0,0,1-.427.131A.437.437,0,0,1,401.286,111.82Z" transform="translate(-364.523 -74.048)" fill="#f5b691"/>
        <path id="Path_91" data-name="Path 91" d="M396,68.015a8.354,8.354,0,0,1,.985,3.305c.692,4.928.917,9.912,1.14,14.884a30.31,30.31,0,0,0,.438,3.007c-1.061.083-2.129.161-3.191.233-.248-1.4-.52-2.813-.827-4.2q-.988-4.573-2.388-9.035a8.592,8.592,0,0,0,.841-7.247v-.006a3.045,3.045,0,0,1,.714-1.082l.863-1.229a6.093,6.093,0,0,1,.926.745A3.966,3.966,0,0,1,396,68.015Z" transform="translate(-361.764 -54.681)" fill="url(#linear-gradient-9)"/>
        <path id="Path_92" data-name="Path 92" d="M389.341,47.811a.457.457,0,0,0-.262-.228.673.673,0,0,0-.477.026.768.768,0,0,0-.272.2,4,4,0,0,1,2.6-3.037l.009.024a3.524,3.524,0,0,1,1.292-.363,3.688,3.688,0,0,1,3.99,3.883,2.9,2.9,0,0,0-.111.771,2.148,2.148,0,0,0,.008.276c-.122.316-.244.632-.38.944a2.292,2.292,0,0,1-.8-1.277,5.73,5.73,0,0,1-.121-1.58,5.622,5.622,0,0,1-3.987.685A1.862,1.862,0,0,1,390.41,48a4.786,4.786,0,0,1-.709.657.566.566,0,0,1-.191.1.21.21,0,0,1-.2-.05.287.287,0,0,1-.035-.242C389.294,48.247,389.318,48.028,389.341,47.811Z" transform="translate(-359.999 -44.42)" fill="#3f3574"/>
        <path id="Path_93" data-name="Path 93" d="M388.237,52.852a.873.873,0,0,0,.5.3c-.039.288-.074.667-.132,1.056a3.9,3.9,0,0,1-.378-1.358Z" transform="translate(-359.953 -48.314)" fill="#3f3574"/>
        <path id="Path_94" data-name="Path 94" d="M364.686,66.373c-.107.394-.208.788-.3,1.18a25.947,25.947,0,0,0-2.151,10.05,5.039,5.039,0,0,1-2.324-2.456,6.21,6.21,0,0,1-2.249.705,2.635,2.635,0,0,1-1.183-.216c-.01-.14-.014-.276-.012-.417a8.62,8.62,0,0,1,1.915-4.691,27.277,27.277,0,0,1,8.29-7.605,7.248,7.248,0,0,0-1.951,3.458Z" transform="translate(-345.285 -52.965)" fill="url(#linear-gradient-9)"/>
        <path id="Path_95" data-name="Path 95" d="M374.45,110.374c-.01-.03-.019-.059-.03-.095.007.005.007.005.012,0A.494.494,0,0,1,374.45,110.374Z" transform="translate(-353.575 -74.833)" fill="#e85b0d"/>
        <path id="Path_96" data-name="Path 96" d="M386.129,50.18a.457.457,0,0,1,.262.228c-.024.218-.047.436-.069.66a.287.287,0,0,0,.035.242.21.21,0,0,0,.2.05.565.565,0,0,0,.191-.1,4.785,4.785,0,0,0,.709-.657,1.862,1.862,0,0,0,.422.128,5.622,5.622,0,0,0,3.987-.685,5.733,5.733,0,0,0,.121,1.58,2.292,2.292,0,0,0,.8,1.277,11.016,11.016,0,0,1-1.376,2.448,3.441,3.441,0,0,1-.237.286,2.973,2.973,0,0,1-.6.527,1.6,1.6,0,0,1-1.112.274,4.461,4.461,0,0,0-1.082-.246.79.79,0,0,0-.573.357,3.068,3.068,0,0,0,1.09,1.705c.124.108.247.21.375.306a4.728,4.728,0,0,1-7.328-3.017l-.006-.055c.278-.045.549-.1.825-.153a3.83,3.83,0,0,0,2.773-1.624,5.956,5.956,0,0,0,.164-.795c.058-.389.093-.768.132-1.056a.873.873,0,0,1-.5-.3.784.784,0,0,1-.172-.306.9.9,0,0,1,.219-.844.769.769,0,0,1,.272-.2A.673.673,0,0,1,386.129,50.18Z" transform="translate(-357.049 -47.017)" fill="#f5b691"/>
        <path id="Path_97" data-name="Path 97" d="M379.774,90.89a6.96,6.96,0,0,0,3.287-1.34c.4.476.814.943,1.221,1.412a14.833,14.833,0,0,1,3.094,4.783c.029.089.058.172.081.267.509,1.841.19,4.8-1.581,5.328q-2.713.4-5.444.649l-.011.008c-.179-.416-.492-.772-.7-1.173l0-.012c-.024-.1-.048-.2-.066-.294-.157-.646-.284-1.3-.392-1.948.472-.278.938-.555,1.4-.826.219-.131.463-.3.489-.545a.834.834,0,0,0-.345-.624,21,21,0,0,1-2-2.255c-.054-1.126-.053-2.252,0-3.373A6.468,6.468,0,0,0,379.774,90.89Z" transform="translate(-355.581 -65.261)" fill="#f3c72c"/>
        <path id="Path_98" data-name="Path 98" d="M372.808,110.372c.089.488.111.984.151,1.478-.647.04-1.3.069-1.953.091a1.178,1.178,0,0,1-.141,0,3.914,3.914,0,0,0,1.85-1.673.224.224,0,0,0,.062,0C372.789,110.312,372.8,110.342,372.808,110.372Z" transform="translate(-351.934 -74.831)" fill="#3f3574"/>
        <path id="Path_99" data-name="Path 99" d="M374.345,110.148a.293.293,0,0,0,.021.072.225.225,0,0,1-.062,0C374.32,110.194,374.329,110.168,374.345,110.148Z" transform="translate(-353.521 -74.773)" fill="#e85b0d"/>
        <path id="Path_100" data-name="Path 100" d="M392.4,70.946a8.592,8.592,0,0,1-.841,7.247c-.221-.713-.453-1.424-.69-2.128a3.594,3.594,0,0,0,.7-1.266,18.738,18.738,0,0,0,.474-2.586A5.562,5.562,0,0,1,392.4,70.946Z" transform="translate(-361.172 -56.67)" fill="#962a79"/>
        <path id="Path_101" data-name="Path 101" d="M394.5,58.078a1.6,1.6,0,0,0,1.112-.274,2.973,2.973,0,0,0,.6-.527,3.434,3.434,0,0,0,.237-.286,11.018,11.018,0,0,0,1.376-2.448c.136-.312.258-.628.38-.944a6.031,6.031,0,0,0,.363,1.65,12.291,12.291,0,0,1,.882,2.905,3.743,3.743,0,0,1-.961,2.885,3.1,3.1,0,0,1-2.17.954,3.963,3.963,0,0,0-.5-.63,6.09,6.09,0,0,0-.926-.745c-.195-.137-.39-.274-.58-.418-.128-.1-.251-.2-.375-.306a3.068,3.068,0,0,1-1.09-1.7.79.79,0,0,1,.573-.357A4.461,4.461,0,0,1,394.5,58.078Z" transform="translate(-362.085 -48.659)" fill="#3f3574"/>
        <path id="Path_102" data-name="Path 102" d="M374.738,86.958a15.244,15.244,0,0,1-3.162.174c-.005.007-.005.007-.012,0a.293.293,0,0,1-.021-.072c-1.062-3.179-2.926-7.142-3.246-10.194-.011-.091-.016-.183-.02-.274a19.616,19.616,0,0,1,.463-5.257q.483-2.541,1.084-5.06c.089-.392.189-.786.3-1.18l.038.008a7.249,7.249,0,0,1,1.951-3.458.02.02,0,0,0,.011-.008,5.113,5.113,0,0,1,1.509-.98,9.036,9.036,0,0,1,1.984-.5l.006.055a4.728,4.728,0,0,0,7.328,3.017c.19.144.385.281.58.418l-.863,1.229a3.045,3.045,0,0,0-.714,1.082v.006a5.561,5.561,0,0,0-.354,1.267,18.724,18.724,0,0,1-.474,2.586,3.593,3.593,0,0,1-.7,1.266,2.2,2.2,0,0,1-.95.655,8.5,8.5,0,0,1-1.567.224,3.666,3.666,0,0,0-1.892.915,16.46,16.46,0,0,0,2.191,3.1,6.959,6.959,0,0,1-3.287,1.34,35.54,35.54,0,0,1,.043-6.868,35.428,35.428,0,0,0-1.015,6.929c-.051,1.121-.053,2.247,0,3.373A32.238,32.238,0,0,0,374.4,85c.109.652.235,1.3.392,1.948A.17.17,0,0,1,374.738,86.958Z" transform="translate(-350.719 -51.687)" fill="url(#linear-gradient-9)"/>
      </g>
      <path id="Path_103" data-name="Path 103" d="M375.81,111.611a5.979,5.979,0,0,0,.6,3.374,1.734,1.734,0,0,0,.721.7,1.587,1.587,0,0,0,.79.112.885.885,0,0,0,.54-.193,1.091,1.091,0,0,0,.206-.9q-.024-.345-.049-.689c-.011-.159-.008-.349.126-.436a.939.939,0,0,1,.344-.064c.308-.059.458-.417.477-.73a3.314,3.314,0,0,0-.918-2.176,2.5,2.5,0,0,1-.469-.737l-2.321.337C375.854,110.679,375.828,111.147,375.81,111.611Z" transform="translate(-252.168 -74.648)" fill="#f19b42"/>
      <path id="Path_104" data-name="Path 104" d="M399.549,106.393a1.993,1.993,0,0,0-1.1-3.4l-6.412-.932a1.994,1.994,0,0,1-1.5-1.09l-2.867-5.81a1.993,1.993,0,0,0-3.575,0l-2.867,5.81a1.994,1.994,0,0,1-1.5,1.09l-3.481.506a2.5,2.5,0,0,0,.469.737,3.314,3.314,0,0,1,.918,2.176c-.019.313-.17.671-.477.73a.94.94,0,0,0-.344.064c-.133.087-.137.277-.126.436q.025.345.049.689a1.091,1.091,0,0,1-.206.9.885.885,0,0,1-.54.193,1.587,1.587,0,0,1-.79-.112,1.734,1.734,0,0,1-.721-.7,5.978,5.978,0,0,1-.6-3.374c.018-.463.044-.932.048-1.4l-.609.089a1.993,1.993,0,0,0-1.1,3.4l4.639,4.522a1.993,1.993,0,0,1,.573,1.764l-1.1,6.386a1.993,1.993,0,0,0,2.892,2.1l5.734-3.015a1.993,1.993,0,0,1,1.855,0l5.734,3.015a1.993,1.993,0,0,0,2.892-2.1l-1.1-6.386a1.993,1.993,0,0,1,.573-1.764Z" transform="translate(-250.231 -67.34)" fill="#f5b645"/>
      <path id="Path_105" data-name="Path 105" d="M377.441,112.671c.1.555.188,1.11.285,1.665l-.047.018a.8.8,0,0,1-.039.805c-.224.242-.633.161-.934.019a3.648,3.648,0,0,1-1.842-2.083,6.059,6.059,0,0,1-.252-1.392c-.04-.494-.062-.99-.151-1.478a.494.494,0,0,0-.018-.1,15.244,15.244,0,0,0,3.162-.174,1.744,1.744,0,0,0,.119.281l0,.012c.208.4.521.757.7,1.173.007.011.014.017.016.029a2,2,0,0,1,.031,1.449c-.042.116-.112.247-.233.267-.163.032-.294-.143-.307-.308a3.206,3.206,0,0,1,.078-.483.389.389,0,0,0-.179-.415.321.321,0,0,0-.386.218A.888.888,0,0,0,377.441,112.671Z" transform="translate(-251.542 -74.684)" fill="#f5b691"/>
      <path id="Path_106" data-name="Path 106" d="M437.488,229.679a4.575,4.575,0,0,0-6.454-.44L389.37,265.58,380.233,258a4.574,4.574,0,0,0-6.256.388L355.645,277.9l-11.064-9.452a4.576,4.576,0,0,0-5.912-.026l-17.013,14.271v11.316a4.561,4.561,0,0,0,1.868-.94l18.058-15.148,11.437,9.77a4.574,4.574,0,0,0,6.306-.346L377.7,267.784l8.822,7.322a4.573,4.573,0,0,0,5.928-.073l44.6-38.9A4.574,4.574,0,0,0,437.488,229.679Z" transform="translate(-227.166 -129.25)" fill="#f1a142"/>
      <path id="Path_107" data-name="Path 107" d="M437.488,226.607a4.575,4.575,0,0,0-6.454-.44L389.37,262.508l-9.136-7.584a4.574,4.574,0,0,0-6.256.388l-18.332,19.516-11.064-9.452a4.576,4.576,0,0,0-5.912-.026l-17.013,14.271v11.316a4.555,4.555,0,0,0,1.868-.94l18.058-15.148,11.437,9.77a4.574,4.574,0,0,0,6.306-.346L377.7,264.712l8.822,7.322a4.572,4.572,0,0,0,5.928-.072l44.6-38.9A4.574,4.574,0,0,0,437.488,226.607Z" transform="translate(-227.166 -127.831)" fill="#f5b645"/>
      <path id="Path_108" data-name="Path 108" d="M535.323,214.08l-22.379,2.142,20.336,21.332Z" transform="translate(-315.503 -122.77)" fill="#f1a142"/>
      <path id="Path_109" data-name="Path 109" d="M533.487,212.325l-22.379,2.142L531.444,235.8Z" transform="translate(-314.655 -121.959)" fill="#f5b645"/>
      <path id="Path_110" data-name="Path 110" d="M552.447,212.325l.988.945-.2,2.29h-1.07Z" transform="translate(-333.616 -121.959)" fill="#f1a142"/>
      <g id="Group_15" data-name="Group 15" transform="translate(57.528 112.172)">
        <path id="Path_111" data-name="Path 111" d="M305.865,341.5a.834.834,0,0,0-1,.62l-1.884,8H290.154l1.795-7.621a.834.834,0,1,0-1.623-.383l-2.014,8.557-2.162,9.188-2.164,9.191-2.161,9.191-2.165,9.191-2.161,9.188-2.284,9.7a.834.834,0,0,0,.622,1,.9.9,0,0,0,.192.022.83.83,0,0,0,.808-.641l2.134-9.071H291.8l-2.045,8.688a.838.838,0,0,0,.622,1,.9.9,0,0,0,.192.022.835.835,0,0,0,.812-.641l2.25-9.563,2.162-9.191,2.164-9.191,2.142-9.11,2.181-9.271,2.164-9.188,2.045-8.694A.833.833,0,0,0,305.865,341.5Zm-13.68,54.48a.774.774,0,0,0-.111-.009H279.365l1.764-7.5h12.825Zm2.161-9.177H281.521l1.767-7.5h12.825Zm2.159-9.171H283.68l1.767-7.5h12.821Zm2.156-9.169H285.839l1.764-7.5h12.825Zm2.159-9.168H288l1.764-7.5h12.825Z" transform="translate(-263.237 -293.777)" fill="#7671aa"/>
        <g id="Group_14" data-name="Group 14">
          <path id="Path_112" data-name="Path 112" d="M305.266,282.566l-2.044-1.209-1.294-.766a.442.442,0,0,1-.153-.6l2.636-4.6a.437.437,0,0,1,.6-.158l1.456.86,1.8,1.069.975.579q-1.578,2.663-3.155,5.318Z" transform="translate(-275.484 -263.152)" fill="#f3c72c"/>
          <path id="Path_113" data-name="Path 113" d="M259.329,341.509h.123c.23.57.469,1.018.03,1.171a2.534,2.534,0,0,0-1.329,1.264,2.956,2.956,0,0,0-.192.575c-.128.49-.255.984-.383,1.474a12.587,12.587,0,0,1-3.572,1.23,1.534,1.534,0,0,1-.575.025.556.556,0,0,1-.43-.34.835.835,0,0,1,.2-.69,30.024,30.024,0,0,1,2.831-3.649,3.525,3.525,0,0,1,.967-.83A4.909,4.909,0,0,1,259.329,341.509Z" transform="translate(-252.978 -293.777)" fill="#ef599e"/>
          <path id="Path_114" data-name="Path 114" d="M263.276,335.516a71.19,71.19,0,0,0,8.639-7.013l.281.409a22.86,22.86,0,0,0,1.167,4.479c-2.682,1.559-6.63,3.475-8.311,4.4A28.242,28.242,0,0,1,261.526,340c.128-.49.256-.984.383-1.474a2.948,2.948,0,0,1,.192-.575,2.533,2.533,0,0,1,1.329-1.264c.439-.153.2-.6-.03-1.171Z" transform="translate(-256.925 -287.783)" fill="#f5b691"/>
          <path id="Path_115" data-name="Path 115" d="M325.4,269.7s0-.009,0-.017,0,.013,0,.017Z" transform="translate(-286.424 -260.62)" fill="#e10b17"/>
          <path id="Path_116" data-name="Path 116" d="M309.31,372.218c-2.487.086-5.331.107-7.46.077.115-.83.234-1.665.354-2.5,1.018.468,1.9,1.375,3.023,1.431a4.3,4.3,0,0,0,1.861-.49l.251-.11a4.278,4.278,0,0,1,1.758.664.928.928,0,0,1,.315.388.431.431,0,0,1-.106.468Z" transform="translate(-275.547 -306.854)" fill="#ef599e"/>
          <path id="Path_117" data-name="Path 117" d="M304.166,293.4a21.517,21.517,0,0,1,.085-6.727l2.044,1.209a5.336,5.336,0,0,0-.192,2.2c-.145.247-.294.5-.439.745l-.307.511C304.975,292.029,304.575,292.715,304.166,293.4Z" transform="translate(-276.514 -268.464)" fill="#ef599e"/>
          <path id="Path_118" data-name="Path 118" d="M305.756,361.028a3.738,3.738,0,0,0,1.686.712c.068.012.132.03.2.042l-.251.11a4.3,4.3,0,0,1-1.861.49c-1.12-.055-2.005-.962-3.023-1.431q.728-5.154,1.456-10.312a27.42,27.42,0,0,0,4.032.515c-.818,3.232-1.571,6.506-2.218,9.848Z" transform="translate(-275.851 -298.006)" fill="#f5b691"/>
          <path id="Path_119" data-name="Path 119" d="M316.424,275.094q-.773,1.309-1.549,2.61l-.975-.579A11.29,11.29,0,0,1,316.424,275.094Z" transform="translate(-281.112 -263.119)" fill="#962a79"/>
          <path id="Path_120" data-name="Path 120" d="M317.911,257.115a3.585,3.585,0,0,0-.255,1.026,4.4,4.4,0,0,0-.222.98A4.279,4.279,0,0,1,315.4,262a5.533,5.533,0,0,1-1.758-2.227,3.354,3.354,0,0,1,.166-2.976,2.418,2.418,0,0,1,2.652-1.094A2.325,2.325,0,0,1,317.911,257.115Z" transform="translate(-280.871 -254.123)" fill="#3f2f6d"/>
          <path id="Path_121" data-name="Path 121" d="M326.916,254.042a1.944,1.944,0,0,1-.57,1.78c-.162.149-.362.3-.383.515a.981.981,0,0,0,.072.366,1.614,1.614,0,0,1-.234,1.4.7.7,0,0,0-.668-.136.773.773,0,0,0-.5.545.875.875,0,0,0,.72,1.065.321.321,0,0,0,.064,0,3.88,3.88,0,0,1-1.988,1.89,2.86,2.86,0,0,0-.6-.783,5.359,5.359,0,0,1-1.537-3.475,3.157,3.157,0,0,1,.017-.349,3.587,3.587,0,0,1,.255-1.026,2.986,2.986,0,0,1,1.554-1.657,3.6,3.6,0,0,1,1.477-1.158,2.331,2.331,0,0,1,1.873.039,1.731,1.731,0,0,1,.967,1.482A3.039,3.039,0,0,0,326.916,254.042Z" transform="translate(-284.528 -252.843)" fill="#3f2f6d"/>
          <path id="Path_122" data-name="Path 122" d="M328.177,256.851a1.944,1.944,0,0,0,.57-1.78,3.041,3.041,0,0,1,.524.5,3.534,3.534,0,0,1,.635,1.068c.183.5.293,1.1.753,1.38.128.076.277.119.4.208a.347.347,0,0,1,.145.4c-.047.107-.162.158-.251.234-.307.264-.222.749-.12,1.145a3.965,3.965,0,0,1,.171,1.41,1.528,1.528,0,0,1-.7,1.188,7.9,7.9,0,0,1-1.15.336,2.646,2.646,0,0,0-1.243,1.205c-.14-.085-.277-.171-.417-.256a5.751,5.751,0,0,0-2.15-.932s0-.013,0-.017a.912.912,0,0,0-.064-.4.179.179,0,0,0-.017-.038,3.88,3.88,0,0,0,1.988-1.89.323.323,0,0,1-.064,0,.875.875,0,0,1-.72-1.065.773.773,0,0,1,.5-.545.7.7,0,0,1,.668.136,1.614,1.614,0,0,0,.234-1.4.979.979,0,0,1-.072-.366C327.814,257.149,328.014,257,328.177,256.851Z" transform="translate(-286.358 -253.872)" fill="#f5ba95"/>
          <path id="Path_123" data-name="Path 123" d="M309.538,349.46l-.294,1.15a27.416,27.416,0,0,1-4.032-.515c.03-.2.055-.392.086-.588Q307.418,349.487,309.538,349.46Z" transform="translate(-277.1 -297.461)" fill="#f3a18a"/>
          <path id="Path_124" data-name="Path 124" d="M309.611,326.21q-2.12.026-4.24.047l2.5-17.7c2.691-2.849,5.2-5.723,7.4-8.541l.017-.864a17.6,17.6,0,0,0,2.01-.043c-2.052,9.188-3.257,18.032-5.6,27.076C311.008,326.2,310.31,326.205,309.611,326.21Z" transform="translate(-277.173 -274.211)" fill="#dfd8eb"/>
          <path id="Path_125" data-name="Path 125" d="M330.887,281.827c.017.357.03.72.043,1.086a14.252,14.252,0,0,1-1.367-.417C329.989,282.282,330.432,282.057,330.887,281.827Z" transform="translate(-288.345 -266.228)" fill="#962a79"/>
          <path id="Path_126" data-name="Path 126" d="M308.941,289.4c-.34.57-.676,1.141-1.017,1.711a5.337,5.337,0,0,1,.192-2.2Z" transform="translate(-278.334 -269.501)" fill="#962a79"/>
          <path id="Path_127" data-name="Path 127" d="M308.321,307.451q-.351,2.478-.7,4.961c-.915.971-1.852,1.937-2.8,2.9Q306.669,311.428,308.321,307.451Z" transform="translate(-276.917 -278.061)" fill="#7561ab"/>
          <path id="Path_128" data-name="Path 128" d="M281.352,329.263q1.246,1.833,2.5,3.666c-.383.251-.835.528-1.328.813A22.858,22.858,0,0,1,281.352,329.263Z" transform="translate(-266.081 -288.134)" fill="#f3a18a"/>
          <path id="Path_129" data-name="Path 129" d="M293.493,296.961c.408-.681.809-1.366,1.192-2.061l.307-.511a18.434,18.434,0,0,0,8.967,2.584l-.017.864c-2.2,2.819-4.709,5.692-7.4,8.541q.352-2.478.7-4.961-1.648,3.979-3.5,7.86c-3,3.031-6.153,6-9.274,8.809-.285-.421-.571-.843-.86-1.265q-1.246-1.833-2.5-3.666l-.281-.409A75.105,75.105,0,0,0,293.493,296.961Z" transform="translate(-265.84 -272.03)" fill="#dfd8eb"/>
          <path id="Path_130" data-name="Path 130" d="M363.966,256.641c-.664.184-1.333.362-2,.541.306.064.617.132.924.2.068.013.14.034.166.1a.138.138,0,0,1-.072.162.407.407,0,0,1-.188.043q-1.328.083-2.656.2a5.27,5.27,0,0,0-.583.081,58.671,58.671,0,0,0-6.378,4.088,6.122,6.122,0,0,0-.762-3.185c1.183-.494,3.972-1.69,5.641-2.4l-.017-.043a2.668,2.668,0,0,0,1.052-1.167,10.393,10.393,0,0,1,.664-1.192l-.017-.009a1.763,1.763,0,0,1,.175-.319.512.512,0,0,1,.293-.2.313.313,0,0,1,.324.115.406.406,0,0,1,.017.37,3.387,3.387,0,0,0-.149.357.641.641,0,0,0,.1.511c1.026-.447,2.053-.869,3.091-1.269a.339.339,0,0,1,0,.4.939.939,0,0,1-.315.277c-.562.362-1.124.728-1.686,1.09.851-.073,1.7-.14,2.559-.213a.309.309,0,0,1-.089.341.883.883,0,0,1-.336.158c-.579.183-1.158.362-1.737.545-.051.013-.115.047-.11.1s.089.081.153.077l1.857-.077c.119,0,.281.03.285.149C364.179,256.565,364.064,256.616,363.966,256.641Z" transform="translate(-298.9 -253.16)" fill="#f5ba95"/>
          <path id="Path_131" data-name="Path 131" d="M311.754,272.327q.779-1.3,1.55-2.61a11.289,11.289,0,0,0-2.525,2.031l-1.8-1.069c.882-.622,1.784-1.209,2.7-1.78a5.8,5.8,0,0,1,1.43-.728,17.167,17.167,0,0,1,2.146-.3,2.277,2.277,0,0,0,1.72-1.047h0a5.753,5.753,0,0,1,2.15.932c.14.085.277.171.417.256s.285.17.426.256l11.539-4.811,0,0a6.122,6.122,0,0,1,.762,3.185,5.663,5.663,0,0,1-.085.847c-3.671,1.848-8.048,4.049-11.654,5.859-.456.23-.9.455-1.324.668a14.242,14.242,0,0,0,1.367.417c.1,2.725.213,5.629.294,7.788a17.913,17.913,0,0,1-4.76.473,18.434,18.434,0,0,1-8.967-2.584l.439-.745c.341-.571.677-1.141,1.017-1.711Q310.176,274.988,311.754,272.327Z" transform="translate(-277.992 -257.741)" fill="url(#linear-gradient-9)"/>
        </g>
      </g>
      <g id="Group_20" data-name="Group 20" transform="translate(212.972 167.376)">
        <path id="Path_132" data-name="Path 132" d="M548.371,445.579a6.99,6.99,0,0,1,.584,1.034,29.942,29.942,0,0,0,3.04-.325,2.337,2.337,0,0,1,.026-.3c.35-2.526.912-6.358,1.288-9.489-1.271-.078-2.547-.152-3.819-.229.074,1.963.139,4.286.225,5.744a4.315,4.315,0,0,1-.467,2.79A2.8,2.8,0,0,1,548.371,445.579Z" transform="translate(-544.835 -392.754)" fill="#f6bb96"/>
        <path id="Path_133" data-name="Path 133" d="M542.422,454.962a1.384,1.384,0,0,0-.472.3.481.481,0,0,0-.112.519c.108.216.4.264.64.281,2.128.134,6.535-.069,6.535-.069a11.653,11.653,0,0,0-.052-1.722,29.943,29.943,0,0,1-3.04.325,6.99,6.99,0,0,0-.584-1.034,8.681,8.681,0,0,1-.917.471C543.754,454.344,543.088,454.655,542.422,454.962Z" transform="translate(-541.802 -400.741)" fill="#402f6d"/>
        <path id="Path_134" data-name="Path 134" d="M566.551,397.017a21.665,21.665,0,0,0,1.35-2.072,20.011,20.011,0,0,1-3.668-2.456c-.766,1.773-1.505,3.65-2.193,5.077l-6.9,4.343c-.264.009-.536,0-.8-.009a2.576,2.576,0,0,0-1.457.285,2.606,2.606,0,0,0-1.016,2.011l.571-.087a3.52,3.52,0,0,1,.783-.5,4.412,4.412,0,0,1,1.847-.156,2.778,2.778,0,0,0,1.791-.376v0c2.789-.969,5.614-2.02,7.811-3.979A13.8,13.8,0,0,0,566.551,397.017Z" transform="translate(-546.45 -372.536)" fill="#f6bb96"/>
        <path id="Path_135" data-name="Path 135" d="M556.666,418.848a70.94,70.94,0,0,0,10.056-.195c2.158-.225,4.463-.683,5.96-2.253a6.831,6.831,0,0,0,1.665-3.52c.017-.1.034-.186.047-.281a58.851,58.851,0,0,1-9.1-2.729.13.13,0,0,1-.052-.022c-2.7.688-5.4,1.228-8.092,1.856-1.626.381-3.244.791-4.857,1.289a6.134,6.134,0,0,0-2.79,1.44,5.92,5.92,0,0,0-1.168,2.474,63.317,63.317,0,0,0-1.592,7.046l2,.117c1.272.078,2.548.151,3.819.229.252.013.5.03.749.043q.22-2.809.445-5.618C554.719,418.77,555.692,418.813,556.666,418.848Z" transform="translate(-544.082 -380.552)" fill="#ccc1e0"/>
        <g id="Group_16" data-name="Group 16" transform="translate(0.603 23.81)">
          <path id="Path_136" data-name="Path 136" d="M542.944,400.028,547,408.215l-.047-.593.359-.056-3.849-7.76C543.334,399.492,542.811,399.713,542.944,400.028Z" transform="translate(-542.922 -399.654)" fill="#402f6d"/>
          <path id="Path_137" data-name="Path 137" d="M558.27,412.237l-6.5.99-.57.087-.42.061-.359.056.047.593,8.365-1.276-.03-.143A.469.469,0,0,0,558.27,412.237Z" transform="translate(-546.385 -405.462)" fill="#402f6d"/>
        </g>
        <path id="Path_138" data-name="Path 138" d="M559.384,426.338q-.22,2.809-.445,5.618l.216.013c.277-.173.553-.35.826-.523q1.556-.986,3.105-1.977c.251-.16.5-.316.752-.476q-.772-1.265-1.54-2.53C561.326,426.429,560.353,426.385,559.384,426.338Z" transform="translate(-549.716 -388.167)" fill="#beabd3"/>
        <path id="Path_139" data-name="Path 139" d="M567.2,451.121a3.838,3.838,0,0,0-1.285-.727,8.72,8.72,0,0,1-.471.926c-.359.64-.718,1.285-1.077,1.924a1.454,1.454,0,0,0-.208.519.486.486,0,0,0,.216.484c.216.117.476-.018.683-.147,1.8-1.133,5.259-3.879,5.259-3.879a7.582,7.582,0,0,0-.969-1.246C568.666,449.72,567.948,450.438,567.2,451.121Z" transform="translate(-552.125 -398.622)" fill="#402f6d"/>
        <path id="Path_140" data-name="Path 140" d="M564.4,442.627a3.841,3.841,0,0,1,1.285.727c.748-.683,1.466-1.4,2.15-2.145a3.245,3.245,0,0,1-.238-.381c-1.194-2.24-2.375-5.83-3.616-8.672q-1.551.986-3.105,1.977c.938,1.406,3.771,6.479,3.78,7.361A2.869,2.869,0,0,1,564.4,442.627Z" transform="translate(-550.61 -390.854)" fill="#f6bb96"/>
        <path id="Path_141" data-name="Path 141" d="M570.16,373.437c0,.29-.044.658.211.8a.441.441,0,0,0,.441-.047,1.127,1.127,0,0,0,.259-.277,6.541,6.541,0,0,0,.973.982,2.2,2.2,0,0,0,.9.5,1.811,1.811,0,0,0,1.207-.2,3.224,3.224,0,0,0,.493-.315,17.446,17.446,0,0,1,1.034,1.834h0a12.32,12.32,0,0,1,2.3-.091,4.639,4.639,0,0,0,1.756-.307q-.772-1.129-1.644-2.185l.013-.013a3.413,3.413,0,0,1-.636-1.029,4.626,4.626,0,0,1-.229-.766,4.8,4.8,0,0,1-2.466-.839,1.129,1.129,0,0,0,.242-.562,1.012,1.012,0,0,0-.337-.917.873.873,0,0,0-.952-.121.786.786,0,0,0-.411.744,2.658,2.658,0,0,0-1.375-.671,13.069,13.069,0,0,0-1.51.2,1.935,1.935,0,0,1-1.025-.242,4.4,4.4,0,0,0,.251,1.907A4.755,4.755,0,0,1,570.16,373.437Z" transform="translate(-554.544 -362.052)" fill="#f6bb96"/>
        <path id="Path_142" data-name="Path 142" d="M574.877,392.336c-.013.026-.021.056-.034.082a20.012,20.012,0,0,0,3.668,2.456c.151-.268.3-.536.445-.8C577.581,393.534,576.05,392.924,574.877,392.336Z" transform="translate(-557.06 -372.465)" fill="#f2a68e"/>
        <path id="Path_143" data-name="Path 143" d="M575.053,360.052a4.1,4.1,0,0,0,2.115-1.185,2,2,0,0,0-.043-2.474,2.925,2.925,0,0,0-2.617-.952,2.554,2.554,0,0,0-1.168.454,1.564,1.564,0,0,0-.627.973,4.353,4.353,0,0,0,.549,2.638,4.037,4.037,0,0,0-3.14,1.752,4.239,4.239,0,0,0-.7,2.011,1.935,1.935,0,0,0,1.025.242,13.072,13.072,0,0,1,1.51-.2,2.657,2.657,0,0,1,1.375.671.786.786,0,0,1,.411-.744.872.872,0,0,1,.951.121,1.013,1.013,0,0,1,.337.917,1.131,1.131,0,0,1-.242.562,4.8,4.8,0,0,0,2.466.839,7.972,7.972,0,0,1-.125-.8,15.67,15.67,0,0,0-.251-2.3A4.327,4.327,0,0,0,575.053,360.052Z" transform="translate(-554.559 -355.414)" fill="#402f6d"/>
        <path id="Path_144" data-name="Path 144" d="M580.53,382.212a12.322,12.322,0,0,0-2.3.091h0c-1.111.484-2.245,2.738-3.322,5.216,1.172.588,2.7,1.2,4.078,1.734.537.208,1.051.411,1.514.6.251-.722.506-1.44.757-2.167a5.93,5.93,0,0,1-.744,4.1,5.842,5.842,0,0,1-2.357,2.193,10.262,10.262,0,0,1,.156,2.634,50.691,50.691,0,0,0,9.238.113l.273-.026a32.566,32.566,0,0,0-5.536-14.787A4.639,4.639,0,0,1,580.53,382.212Z" transform="translate(-557.09 -367.648)" fill="url(#linear-gradient-9)"/>
        <path id="Path_145" data-name="Path 145" d="M581.111,409.836a.133.133,0,0,0,.052.022v-.034A.118.118,0,0,1,581.111,409.836Z" transform="translate(-559.955 -380.541)" fill="#e20613"/>
        <path id="Path_146" data-name="Path 146" d="M581.208,409.544v.034a58.855,58.855,0,0,0,9.1,2.729,17,17,0,0,0,.147-2.976,50.686,50.686,0,0,1-9.238-.112Q581.214,409.389,581.208,409.544Z" transform="translate(-560 -380.262)" fill="#f6bb96"/>
        <path id="Path_147" data-name="Path 147" d="M580.5,395.015a21.658,21.658,0,0,1-1.35,2.072,4.492,4.492,0,0,1,.883,1.548c.03.1.06.194.082.294a5.841,5.841,0,0,0,2.357-2.193,5.928,5.928,0,0,0,.744-4.1c-.251.727-.506,1.445-.757,2.167-.463-.186-.977-.389-1.514-.6C580.8,394.479,580.651,394.747,580.5,395.015Z" transform="translate(-559.049 -372.606)" fill="#ad3252"/>
        <path id="Path_148" data-name="Path 148" d="M571.6,369.48a2.114,2.114,0,0,1,.264,1.893" transform="translate(-555.564 -361.91)" fill="none"/>
        <path id="Path_149" data-name="Path 149" d="M569.383,368.051c-2.059.632-.964,2.734-.319,3.464A6.631,6.631,0,0,0,570.4,370.1C570.653,369.574,569.383,368.051,569.383,368.051Z" transform="translate(-553.988 -361.25)" fill="#402f6d"/>
        <path id="Path_150" data-name="Path 150" d="M586.742,427.482H574.378a.574.574,0,0,1-.572-.572h0a.573.573,0,0,1,.572-.572h12.363a.573.573,0,0,1,.572.572h0A.574.574,0,0,1,586.742,427.482Z" transform="translate(-556.581 -388.167)" fill="#f1b600"/>
        <g id="Group_17" data-name="Group 17" transform="translate(27.205 38.448)">
          <path id="Path_151" data-name="Path 151" d="M595.877,445.08a.624.624,0,0,0,.109-.009.649.649,0,0,0,.531-.748l-2.878-16.929a.649.649,0,0,0-1.279.217l2.878,16.929A.649.649,0,0,0,595.877,445.08Z" transform="translate(-592.351 -426.853)" fill="#f1b600"/>
        </g>
        <g id="Group_18" data-name="Group 18" transform="translate(16.106 38.448)">
          <path id="Path_152" data-name="Path 152" d="M572.376,445.08a.649.649,0,0,0,.639-.54l2.878-16.929a.649.649,0,0,0-1.279-.217l-2.878,16.929a.648.648,0,0,0,.531.748A.635.635,0,0,0,572.376,445.08Z" transform="translate(-571.727 -426.852)" fill="#f1b600"/>
        </g>
        <g id="Group_19" data-name="Group 19" transform="translate(16.867 51.288)">
          <path id="Path_153" data-name="Path 153" d="M573.789,452.009h12.522a.649.649,0,0,0,0-1.3H573.789a.649.649,0,0,0,0,1.3Z" transform="translate(-573.141 -450.711)" fill="#f1b600"/>
        </g>
      </g>
    </g>
  </g>
</svg>
